<svg height="20" width="20" xmlns="http://www.w3.org/2000/svg" viewBox="0 0 20 20"><defs><style>.cls-1{fill:#005dff;}</style></defs><g id="Layer_1" data-name="Layer 1"><path class="cls-1" d="M17.92,3.94V5.3a1.57,1.57,0,0,1,.7,1.31V17.15a1.57,1.57,0,0,1-1.56,1.57H6.52A1.58,1.58,0,0,1,5.21,18H3.85a2.82,2.82,0,0,0,2.67,2H17.06a2.83,2.83,0,0,0,2.82-2.82V6.61A2.82,2.82,0,0,0,17.92,3.94Z"/><path class="cls-1" d="M14.17,16.89a2.62,2.62,0,0,0,2.62-2.63V3.34A2.62,2.62,0,0,0,14.17.72H3.25A2.62,2.62,0,0,0,.62,3.34V14.26a2.63,2.63,0,0,0,2.63,2.63H14.17ZM1.88,14.26V3.34A1.37,1.37,0,0,1,3.25,2H14.17a1.37,1.37,0,0,1,1.37,1.37V14.26a1.37,1.37,0,0,1-1.37,1.38H3.25A1.37,1.37,0,0,1,1.88,14.26Z"/><path class="cls-1" d="M13.24 6.34L12.35 5.46 7.51 10.3 5.18 7.96 4.29 8.85 7.51 12.06 13.24 6.34z"/></g></svg>
