<svg xmlns="http://www.w3.org/2000/svg" viewBox="0 0 320 262.11"><defs><style>.cls-1{fill:#ffeaae;}.cls-2{fill:#fff;}.cls-3{fill:#8fbeff;}.cls-4{fill:#e6f3ff;}.cls-5{fill:#4894ff;}.cls-6{fill:#0069ff;}.cls-7{fill:#d7e9ff;}</style></defs><title>community-modal</title><ellipse class="cls-1" cx="23.86" cy="143.98" rx="18.39" ry="38.28" transform="translate(-49.19 17.63) rotate(-20.63)"/><path class="cls-1" d="M42.47,136.86c-0.4.44-.68,0.3-1-0.48-0.64-1.7-1.3-3.39-2.06-5.05a13.45,13.45,0,0,0-1-1.48A8.23,8.23,0,0,1,38,128.2a4.22,4.22,0,0,0-.42-0.8,1,1,0,0,0-.29-0.33c-0.7-.42-0.49-1.35-1.07-1.82a4.62,4.62,0,0,1-1.07-1.41c-0.89-1.4-1.75-2.84-2.75-4.18a5.61,5.61,0,0,0-1.88-1.89,4.68,4.68,0,0,1-1.27-1.25,41.86,41.86,0,0,0-3.13-3.28,8.89,8.89,0,0,0-3.3-2.29,13.53,13.53,0,0,1-1.92-1.11,6.16,6.16,0,0,0-2.87-1,3.65,3.65,0,0,1-1.26-.22,4.37,4.37,0,0,0-1.67-.27,3.14,3.14,0,0,0-1.61.29c-0.54.22-1.42,0-1.91,0.42a25.14,25.14,0,0,0-3.07,2.15,4.43,4.43,0,0,0-1,1.56,8.31,8.31,0,0,1-.67,1.36,3.62,3.62,0,0,0-.63,1.42,15.4,15.4,0,0,1-.38,2.14c-0.22.68-.42,1.4-0.58,2.13A14.89,14.89,0,0,0,4.79,122a19.42,19.42,0,0,0-.26,2.3,3.61,3.61,0,0,0,.06,1.24A7.86,7.86,0,0,1,4.84,128a56.82,56.82,0,0,0,1.3,12c0.35,1.67.47,3.45,1.47,4.93a2.46,2.46,0,0,1,0,.81,1.66,1.66,0,0,0,.17.82A10.12,10.12,0,0,1,9.4,150,71.21,71.21,0,0,0,16,163.74a8.71,8.71,0,0,0,2.4,3,9.36,9.36,0,0,1,1.36,1.61c3.32,4.15,7.41,8.12,12.05,9.48,1,0.3,2.18.63,3.12,0.06a3.43,3.43,0,0,1,.62.11,1,1,0,0,0,.94-0.25c0.33-.57,1.08-0.16,1.4-0.7a2.06,2.06,0,0,1,.88-1c1.83-1.58,3.06-4.21,3.82-7a7.4,7.4,0,0,0,.35-3.67,2.65,2.65,0,0,1,.32-1.59,2.31,2.31,0,0,0,.18-2,5.17,5.17,0,0,1-.21-2.09,60.15,60.15,0,0,0-1.49-12.88,5.43,5.43,0,0,0-.9-2.41,2.42,2.42,0,0,1-.35-0.77,51.07,51.07,0,0,1-1.41-5,0.43,0.43,0,0,1,.36-0.54,1.28,1.28,0,0,1,1.26.59,12.64,12.64,0,0,1,1.85,3.4c-0.29,1.27.79,2.13,0.94,3.3s0.52,2.33.71,3.51,0.37,2.36.51,3.55S45,154.84,45,156s0.2,2.38.14,3.56a11,11,0,0,0,.35,3,3.89,3.89,0,0,1-.45,3,4.79,4.79,0,0,0-.51,2.91,2.87,2.87,0,0,1-.78,2.39,0.88,0.88,0,0,0-.27.76,0.81,0.81,0,0,1-.3.75,7.77,7.77,0,0,0-.71,1,2.7,2.7,0,0,1-.38,1.62,5.21,5.21,0,0,1-1,1.41,8.82,8.82,0,0,1-6.64,3.17,21.67,21.67,0,0,0-2.91.17,2.38,2.38,0,0,1-1.6-.56,2.67,2.67,0,0,0-2.18-1,1.64,1.64,0,0,1-.78-0.3,29.27,29.27,0,0,1-5.5-4.45c-0.78-.89-1.62-1.72-2.36-2.64a3.64,3.64,0,0,0-.94-0.89A5.13,5.13,0,0,1,16.38,168c-1-1.45-1.95-3-2.89-4.53-0.3-.54-0.31-1.13-0.54-1.63s-0.78-.85-1.06-1.33a63.79,63.79,0,0,1-3-6.48,3.45,3.45,0,0,1-.05-1.24A4.65,4.65,0,0,1,7.72,151c-0.44-1.1-.79-2.24-1.17-3.37-0.17-.56-0.85-0.94-0.73-1.48a2.87,2.87,0,0,0-.72-2.37,2.6,2.6,0,0,1-.4-2.08,2.38,2.38,0,0,0-.46-2A1.93,1.93,0,0,1,4,138a1,1,0,0,0,.07-0.41,7.15,7.15,0,0,1-1-3.37C3,133.08,3,131.9,3,130.74a38.91,38.91,0,0,1,.1-6.61,5.72,5.72,0,0,0,.06-1.3,8.46,8.46,0,0,1,.43-4.3c0.14-.72.48-1.38,0.65-2.09a15.58,15.58,0,0,1,.68-1.81,12.26,12.26,0,0,0,.49-1.85c0.46-.74.55-1.74,1.29-2.21a15.66,15.66,0,0,0,1.77-2c0.59-.35,1.14-0.77,1.73-1.18s1.27-.65,2-0.91a3.47,3.47,0,0,1,2.34,0,0.83,0.83,0,0,0,.44.12c2-.52,3.8.9,5.66,1a2,2,0,0,1,.88.36,17.76,17.76,0,0,1,3.23,2.11c0.89,0.7,1.76,1.23,2.65,1.83,0.3,1,1.36,1.09,2,1.78s1.33,1.33,1.95,2a7,7,0,0,1,2.55,2.65,60.73,60.73,0,0,1,4.07,6.29A3.24,3.24,0,0,1,39,127a2.68,2.68,0,0,0,.93,1.53,1.27,1.27,0,0,1,.51,1.12,2.47,2.47,0,0,0,.58,1.68,8.87,8.87,0,0,1,2.1,4,0.85,0.85,0,0,1-.21,1.07A2.85,2.85,0,0,0,42.47,136.86Z"/><path class="cls-1" d="M280.65,43c-16.24-15-47.74-9.68-83.43-7-79.77,6-117.78-30.39-151,2.4C8.65,75.46,62.91,111.87,64.49,159.69,66.13,208.83,23,200.13,23,247.43H299.64c0-48.73-22.5-58.61-29.5-82.44C254.5,111.77,315.88,75.44,280.65,43Z"/><path class="cls-1" d="M281.46,44.83c0.61,0.62,1.32,1.19,1.94,1.82s1.15,1.3,1.61,1.92a30,30,0,0,1,5.81,19.68c-0.61,8.25-3.92,16.1-7.14,23.78s-7.41,15.18-9.8,23c-0.13.41-.44,1-0.67,1.55a73,73,0,0,0-5.92,22.58c-0.24,1.77-.17,3.59-0.3,5.29a60,60,0,0,0,3.45,24.16c2.82,7.79,7.58,14.56,11.81,21.39a118.3,118.3,0,0,1,8.59,15.61,71.49,71.49,0,0,1,5.1,16.91l0.76,3.26A51.28,51.28,0,0,1,298,234.5a107.17,107.17,0,0,1,.59,10.72c0.08,1.79.22,1.14-2.17,1.25l-5.41,0c-7.21,0-14.42,0-21.64,0-2.89,0-5.9-.16-8.79-0.3a51.94,51.94,0,0,0-7,0,62.61,62.61,0,0,1-8.76.11,48.86,48.86,0,0,0-5.15-.13c-5.88.39-11.92,0.24-17.88,0.27l-30.67.1a24.54,24.54,0,0,0-7.35.79,6.06,6.06,0,0,1-1.26.24,17,17,0,0,1-1.75.06c-1.55,0-2-.18-1.42-0.45s0.33-.47-1-0.51c-10.75-.3-21.59-0.13-32.38-0.16l-59.48,0-32.43-.07-27.94.07H24.53c-0.19,0-.56.09-0.59-0.09l0.16-2.65a37.66,37.66,0,0,1,.74-6.82,36.24,36.24,0,0,1,1.62-6.64l1.13-3.22A23.06,23.06,0,0,1,29.07,224c3.45-6.84,8.88-12.42,14.55-17.73s11.54-10.81,15.56-17.77A35.15,35.15,0,0,0,60.92,185a23.82,23.82,0,0,0,1.52-3.58l1.11-3.73,0.56-1.86,0.29-1.92a94.11,94.11,0,0,0,1.28-15.34,28.93,28.93,0,0,0-.27-3.54c-1-5.6-2-12.16-4.36-17.26a24.45,24.45,0,0,1-1.15-3.16c-2.36-7.95-6.24-15.57-9.94-23.06C44.77,100.88,38.37,90.4,36,79c-1.13-3-1.59-7-2.52-8,0,0.85,0,2-.09,2.66a11.26,11.26,0,0,0,.71,5.62C35,82,36.07,84.67,37,87.59a50.48,50.48,0,0,0,4.1,9.71c1.39,3.22,2.83,6.4,4.35,9.58a84.26,84.26,0,0,0,4.11,7.84,22.61,22.61,0,0,1,1.55,3c2.57,6,5.1,11.87,7.73,17.63,0.79,3.14,2.26,6.46,2.73,9.67,0.45,2.8,1,5.65,1.41,8.6l0.15,1c0.11,0.61.15,1.49,0.24,2.53a62.7,62.7,0,0,1,.12,7.61,38,38,0,0,1-.15,4.06l-0.5,3.51a28.89,28.89,0,0,1-.56,3.5,63.36,63.36,0,0,1-2.17,6.53l-1.46,3.11L58,187.11l-0.83,1.48a36.58,36.58,0,0,0-2.34,3.46c-0.85,1.12-1.71,2.28-2.72,3.39a98,98,0,0,1-7.28,7.1c-2.52,2.13-5.29,4.79-7.83,7.41a54.78,54.78,0,0,0-9.77,13.21A36.11,36.11,0,0,0,23,237l-0.33,2.25-0.12,2.22c-0.09,1.47-.19,2.91-0.22,4.34q0,0.68-.05,1.34l0,0.66,0,0.33a0.75,0.75,0,0,0,.3,0l2.38,0c1.13,0,2.24.08,3.38,0.15a60.33,60.33,0,0,0,8.76-.14,60.3,60.3,0,0,1,10.43,0,30.73,30.73,0,0,0,5.14-.09,37.38,37.38,0,0,1,5.22,0c2.23,0.15,4.59.38,6.83,0.36,14.35-.14,28.79.18,43.06-0.3,3.24,0.35,7-.35,10.17.18,5.41,0.14,22.1.09,30.45-.09,1.12,0,2.52-.13,3.31,0,4.39,0.48,9.52.19,14.05,0.52,2.18,0.16,4.66.25,7,.24,4.13,0,8.29-.07,12.38-0.19,2.94-.09,5.86-0.26,8.65-0.46a48.32,48.32,0,0,1,6.87-.06c2.19,0.14,4.66.15,7,.16l10.81,0c3.54,0.05,6.53-.45,10.4-0.21,3.33,0.21,7.08.19,10.66,0.22,1.75,0,3.67,0,5.26-.16a53,53,0,0,1,6.86,0c2.86,0.12,6.08.21,8.85,0.08,3.56-.16,6.69-0.18,10.36-0.06,7.07,0.22,14.36.29,21.48-.09,0.58,0,1.27-.1,1.74-0.07l2.23,0.12,2.46,0.07,1.78,0a6.75,6.75,0,0,0,0-1.67l-0.09-2.5a67,67,0,0,0-.83-8.68c-0.37-2.18.06-4.45-.63-6.89a45.83,45.83,0,0,1-.95-5.28l-0.94-5.12c-0.91-3.65-2.32-6.36-3.6-9.91l-0.6-1.68a35,35,0,0,0-2.87-6.4c-1.16-1.9-1.9-3.94-3.26-6-2.11-3.43-4.69-7-6.54-10.27S276.8,178,275,175c-2.3-4.84-4.57-9.3-5.66-14.61a68.15,68.15,0,0,1-1.41-16c0.4-11.1,3.75-21.86,8-32.07s9.5-20.1,13.17-30.66c1.86-5.7,3.37-11.72,2.83-17.81A28.22,28.22,0,0,0,289.83,55,31.85,31.85,0,0,0,285,47.33a22,22,0,0,0-3.59-3.39,3.4,3.4,0,0,0-.93-0.58C280,43.18,280.36,43.75,281.46,44.83Z"/><path class="cls-1" d="M43.64,43a26.39,26.39,0,0,1,5.82-6c0.72-.6,2-1.45,2.59-2.07a32.07,32.07,0,0,1,10.1-6.29,48.46,48.46,0,0,1,18.11-3.22,133.29,133.29,0,0,1,18.62,1.67c3.44,0.5,7,1.33,10.38,2.13A79.82,79.82,0,0,0,117.87,31c5.83,0.74,11.48,1.86,17.4,3.11a131.17,131.17,0,0,0,23,2.85c2.25,0.06,5,.19,7.05.41a75.77,75.77,0,0,0,15.82.39c2.65-.19,5.92-0.29,8.92-0.37,7.83-.4,15.6-1.09,23.37-1.75,6-.52,11.88-1,17.72-1,2.75,0,5.89-.18,8.85-0.25,7.72-.15,15.48.09,22.9,1.72a39.61,39.61,0,0,1,11.37,4.13A27.9,27.9,0,0,1,277.21,42c1.07,0.82,2.62,1.58,2.92,1.45,0.59-.28.48-0.94-0.41-2a14.49,14.49,0,0,0-1.93-1.88c-0.91-.61-2-1.29-3.34-2-7.09-3.38-14.75-4.36-22.43-5.17-4,.13-7.9,0-12.2-0.13a116.88,116.88,0,0,0-19.54,1c-8.84,1.18-17.72,2-26.65,2.52a246.58,246.58,0,0,1-50.18-2.07,64.41,64.41,0,0,1-7-1.16c-5.44-1.45-11.73-1.78-17.07-3.44a38.35,38.35,0,0,0-5.15-1c-3.5-.46-7-1.33-10.4-1.81-2.51-.35-4.62-0.95-6.9-1.24-2.94-.39-5.83-0.55-8.78-0.74l-8.88-.46a23.48,23.48,0,0,0-6.85.62c-3.61,1-6.78,1.94-11.19,3.29a32.47,32.47,0,0,0-10.8,6c-1.74,1.32-3.2,2.77-4.75,4.09-1.39,1.47-2.93,2.78-4.21,4.4a29.37,29.37,0,0,0-2.17,2.87c-0.59,1.05-1.2,2-1.83,3s-1.13,2-1.74,3.12A33,33,0,0,0,32.22,63.5c-0.05,1-.08,1.9-0.07,2.73s0.18,1.56.3,2.2a4.17,4.17,0,0,0,1.05,2.45,64.51,64.51,0,0,1,1.28-11.28A34.53,34.53,0,0,1,43.64,43Z"/><path class="cls-2" d="M97.17,112.25A143.54,143.54,0,0,1,304.6,77.35Z"/><path class="cls-2" d="M232.17,87.38c5-.88,9.69-2.11,14.65-2.44l34.66-5.85c1.6-.27,3.21-0.71,4.7-1.08a68.84,68.84,0,0,1,10-1.66l2-.21c0.14,0,.22,0,0.37,0a5.23,5.23,0,0,0,.87-0.06,9.87,9.87,0,0,0-2-1.17c-1.65-.86-4.89-3.18-8.34-5.13s-6.85-3.91-8.36-4.82a78,78,0,0,0-14.24-6.34c-4.21-1.28-7.73-2.46-11.7-3.71-3.21-.69-6.12-1.28-9.43-2.32a146.21,146.21,0,0,0-14.49-2.32,152.5,152.5,0,0,0-19.69-.56c-3.3,0-6.63.14-9.74,0.39-3.28.53-6.41,1.08-10,1.83a136.84,136.84,0,0,0-25.63,7.3,140.74,140.74,0,0,0-18.93,9.06,142.23,142.23,0,0,0-42.19,36.89c-1.09,1.12-7,7.69-7.31,7.12s-0.21-1.69,1-4.39a30.12,30.12,0,0,1,2.86-5.16c0.69-1.05,1.49-2.21,2.42-3.49s2.09-2.58,3.34-4.05a151.53,151.53,0,0,1,11.69-12,154.35,154.35,0,0,1,19.16-14.75,140.33,140.33,0,0,1,24.07-12.54,152.46,152.46,0,0,1,24.52-7.54A177.88,177.88,0,0,1,204.66,46c1.26-.19,2.55-0.37,3.87-0.51l4-.21c2.72-.17,5.49-0.11,8.24,0,3.49,0.17,7,.7,10.57,1,3.54,0.54,7.14.89,10.7,1.62a133,133,0,0,1,21.14,5.37c4.46,1.48,8.56,3.12,12.46,4.49,0.77,0.29,3,1.42,5.42,2.63s4.73,2.7,5.88,3.3c3.23,1.88,6.52,3.68,9.6,5.79l2.35,1.54,0.59,0.38c0.18,0.11.38,0.25,0.73,0.5l1.83,1.33,7.32,5.33L268,85.5c-3.72.63-6.82,1.41-10.14,2s-6.67.88-10.09,1.4l-13.34,2.17-120.35,20.3-2.63.4c-2.06.33-14.09,1.72-14.37,0-0.35-2,28.1-6.81,45.92-9.83C177.71,96,215.31,90.36,232.17,87.38Z"/><path class="cls-2" d="M225.28,158.22a8.22,8.22,0,0,1,16.43,0H225.28Z"/><path class="cls-2" d="M224.3,157.7c-0.06-.42.27-0.72-0.27-1.16-0.11-.09.06-0.17,0.14-0.24a3.91,3.91,0,0,0,.5-0.42,1.88,1.88,0,0,1,.41-0.68,1.28,1.28,0,0,0,.13-0.77,0.4,0.4,0,0,1,.4-0.37,0.62,0.62,0,0,0,.61-0.31,8.32,8.32,0,0,1,1.75-1.9,0.5,0.5,0,0,1,.64-0.06,0.27,0.27,0,0,0,.28,0l0.76-.5a0.22,0.22,0,0,0,.14-0.21,0.91,0.91,0,0,1,.6-0.75c0.24-.24.74,0.43,0.84-0.22a5.52,5.52,0,0,1,.87-0.18,6.5,6.5,0,0,1,1-.07,5.56,5.56,0,0,1,.88,0,7.53,7.53,0,0,1,.88.12,8.9,8.9,0,0,1,1,.13,0.23,0.23,0,0,1,.24.27c0,0.27.1,0.3,0.3,0a0.73,0.73,0,0,1,.58-0.47,4.69,4.69,0,0,1,1,.45,1.81,1.81,0,0,0,1.47.45,0.18,0.18,0,0,1,.14.24c0,0.37.11,0.49,0.41,0.46a0.64,0.64,0,0,1,.8.71,0.56,0.56,0,0,0,.27.46c0.15,0.14.53,0.14,0.4,0.47,0.33,0,.33.29,0.23,0.58,0,0.07.12,0.07,0.17,0.1s0.27,0.08.21,0.19a1.21,1.21,0,0,0,.07,1.09,1,1,0,0,0,.56.73c-0.07.41,0.47,0.88,0.48,1.35a2.62,2.62,0,0,0,.45,1.82c0.09,0.15.12,0.25,0,.27a0.26,0.26,0,0,0-.23.2,0.79,0.79,0,0,0,0,.17,0.32,0.32,0,0,1-.18,0c-1.18,0-2.17.13-3.43,0.26a3,3,0,0,0-.78.34c-0.05,0-.11.1-0.15,0-0.38-.72-0.78-0.28-1.16-0.45a0.61,0.61,0,0,0-.85.4,0.27,0.27,0,0,1-.23.13c-0.19.06-.36-0.06-0.52-0.6-0.09-.3-0.11-0.28-0.18.14a0.78,0.78,0,0,1-.18.54,0.6,0.6,0,0,1-.54-0.14c-0.16-.18-0.3-0.2-0.45,0a0.19,0.19,0,0,1-.31,0c-0.1-.08-0.2-0.2-0.3,0a0.21,0.21,0,0,1-.23.12,2.31,2.31,0,0,0-.46-0.22,1.5,1.5,0,0,0-.47.2,0.44,0.44,0,0,1-.39-0.23,0.36,0.36,0,0,0-.3,0c-0.08,0-.16-0.17-0.23-0.06-0.28.5-.57,0.33-0.85,0.07s-0.25-.15-0.38.05-0.16.1-.23,0a0.59,0.59,0,0,0-.54-0.39h-0.94a0.93,0.93,0,0,1-.94-0.28c0-.06-0.1,0-0.15,0a1.78,1.78,0,0,1-1.17.32,0.38,0.38,0,0,0-.38.21s-0.05.12-.07,0.1a0.68,0.68,0,0,0-.54-0.33,3,3,0,0,0-.46.27,1.39,1.39,0,0,1-.14-0.7l0.15-1.17a0.3,0.3,0,0,1,.07-0.16s0.05,0,.08,0c0.17,0.21.34,0.49,0.52,0,0.05-.13.15,0,0.22,0.08s0.2,0.18.3,0,0.17-.29.23-0.16c0.21,0.52.4,0.18,0.6-.07s0.31-.19.45,0.23c0.07,0.21.15,0.29,0.22,0.13a0.62,0.62,0,0,1,.61-0.49c0.29,0,.56.43,0.85,0.21l0.19,0.59c0.08,0.24.09,0.25,0.17-.21a0.62,0.62,0,0,1,.19-0.49,0.39,0.39,0,0,1,.46.23c0.11,0.19.2,0.16,0.3,0,0.19-.34.36,0.34,0.54,0.19s0.29-.49.46-0.3,0.2,0.24.3,0.1,0.36-.14.54,0.16,0.2,0.14.31,0,0.14-.24.23-0.11a0.89,0.89,0,0,0,1,.36,0.76,0.76,0,0,1,.7.26,0.08,0.08,0,0,0,.15,0,0.45,0.45,0,0,1,.54-0.27h1.1c0.18,0,.34-0.65.53-0.26a0.45,0.45,0,0,1,.54-0.36,12.08,12.08,0,0,1,1.53.09,0.78,0.78,0,0,0,.61-0.16,1.2,1.2,0,0,1,.14-0.26,4.92,4.92,0,0,1,.44.29,0.41,0.41,0,0,0,.24,0c0.68,0.19.45-.52,0.37-1,0-.11.19-0.11,0.46-0.15,0.09,0,.14-0.07.06-0.13A1.81,1.81,0,0,1,241,156a0.72,0.72,0,0,0-.72-0.7c-0.12,0,0-.16.07-0.26s0.08-.2-0.11-0.18-0.41,0-.31-0.22,0.17-.47-0.18-0.45-0.36-.14-0.21-0.45,0-.37-0.24-0.35a0.33,0.33,0,0,1-.33-0.17,0.78,0.78,0,0,1-.23-0.46c0-.14-0.12-0.14-0.31-0.07s-0.18.06-.17,0c0-.51-0.56-0.26-0.75-0.49a5.71,5.71,0,0,0-.62-0.31,0.86,0.86,0,0,0-1.16,0,0.46,0.46,0,0,1-.47,0,5.15,5.15,0,0,0-1.29-.18c-0.3,0-.64-0.24-0.9.32-0.19-.16-0.29.43-0.54-0.09-0.06-.12-0.1.1-0.14,0.17s-0.05.13-.09,0.12a0.52,0.52,0,0,0-.32-0.14,0.23,0.23,0,0,1-.23,0c-0.4-.13-0.87-0.18-0.93.51,0,0.28-.28.11-0.46,0.12s-0.13.09-.13,0.23,0,0.21-.1.15a0.71,0.71,0,0,0-1,.22c-0.4.42-.81,0.83-1.19,1.29a0.35,0.35,0,0,1-.33.25,0.69,0.69,0,0,0-.68.55c-0.18.35-.37,0.69-0.53,1.06,0,0.08-.31.13-0.21,0.24,0.25,0.26-.15.4-0.05,0.63a0.9,0.9,0,0,1,.05.5c0,0.17-.59.28-1.59,0.28-0.41,0-.58,0-0.51-0.15Z"/><path class="cls-3" d="M155.12,180.39a6.24,6.24,0,1,1,6.24,6.24v-6.24h-6.24Z"/><path class="cls-3" d="M169.07,181.34a7.75,7.75,0,0,1-1.95,4.26,7.46,7.46,0,0,1-1.83,1.49,7.24,7.24,0,0,1-1.07.52,7.94,7.94,0,0,1-1.66.44,17,17,0,0,1-1.74.14,2.22,2.22,0,0,1-.82,0l-0.09-.83a10.72,10.72,0,0,1-.08-1.78v-3.65h-0.55c-1,0-1.91-.08-2.87-0.15s-1.71-1.1-1-1.63a3.34,3.34,0,0,1,1.24-.68c0.53-.12,1.09-0.22,1.64-0.3l0.84-.13,0.42-.06a5.48,5.48,0,0,1,.61-0.06c0.9-.07,1.88-0.11,2.8-0.11a24,24,0,0,1-.17,2.9,16.38,16.38,0,0,0-.29,2.95,0.54,0.54,0,0,0,.11.47,0.69,0.69,0,0,0,.34-0.16,0.67,0.67,0,0,1,.14,0,5.2,5.2,0,0,0,.63-0.21,2.05,2.05,0,0,0,1-.88,4.93,4.93,0,0,1,.78-1,2.3,2.3,0,0,0,.67-2c-0.07-.57-0.25-1.21-0.26-1.71a4,4,0,0,0-2.61-3.47,5.16,5.16,0,0,0-4.57.4,5.26,5.26,0,0,0-1.93,2.05c-0.75,1.47-1,2.61-2.41,2.25-0.66-.23-0.71-0.07-0.67-0.79l0.08-.71a7.78,7.78,0,0,1,15.34,2.53h-0.06Z"/><path class="cls-2" d="M183.12,158.22a21.08,21.08,0,0,1,42.16,0H183.12Z"/><path class="cls-2" d="M192.4,141.87a18.6,18.6,0,0,0-4.39,4.52,2.17,2.17,0,0,0-.49,1.07,1.18,1.18,0,0,1-.58,1,1.78,1.78,0,0,0-.65.74,2.85,2.85,0,0,0-.45,1.09,2.44,2.44,0,0,1-.45,1.26,1.62,1.62,0,0,0-.18,1.16c0,0.33-.46.52-0.31,0.9s-0.45.8-.18,1.32a2.29,2.29,0,0,1,.09,1.16c0,0.45,0,.9,0,1.34a2.61,2.61,0,0,1,0,.57,0.33,0.33,0,0,1-.39.22,1.53,1.53,0,0,1-.49-0.23,0.19,0.19,0,0,1-.11-0.18,1.65,1.65,0,0,0-.19-1.19c-0.15-.69.18-1.33-0.1-2.06a1,1,0,0,1,.26-0.55,0.88,0.88,0,0,0,.08-0.81,0.82,0.82,0,0,1,.22-1,0.49,0.49,0,0,0,.21-0.35,3.26,3.26,0,0,1,.71-2.57,5.38,5.38,0,0,1,.83-1.17,1.66,1.66,0,0,0,.76-1.43,1.73,1.73,0,0,1,.48-1.16,19.34,19.34,0,0,1,4.39-4.48,18.83,18.83,0,0,1,5.77-2.94,3.37,3.37,0,0,1,1.26-.09,1.07,1.07,0,0,0,.42,0,12.32,12.32,0,0,1,1.1-.62c0.39-.12.84,0.33,1.22,0a1.73,1.73,0,0,1,1.18-.49c1.34-.14,2.63.13,4-0.3a0.56,0.56,0,0,1,.4.14,6.37,6.37,0,0,0,2.46.58c1.22-.36,2.29.21,3.38,0.56a13.82,13.82,0,0,0,2.87,1,0.51,0.51,0,0,1,.33.26,2.12,2.12,0,0,0,1.45.93c1.53,1,3.34,2,4.32,3.66a0.8,0.8,0,0,1-.07.74c-0.22.46-.21,0.5,0.14,0.5a1.42,1.42,0,0,1,1.12.39,8.48,8.48,0,0,1,.65.9,20.11,20.11,0,0,1,2.86,7c0.19,0.87.26,1.75,0.41,2.64l0.14,2.23,0.08,1.13a1.13,1.13,0,0,1,0,.53l-0.6,0-1.83,0-0.92,0-0.47-.06a9.56,9.56,0,0,0-1.23-.26,11.16,11.16,0,0,0-1.22.2,1.7,1.7,0,0,1-1.23-.2,0.62,0.62,0,0,0-.79.06,0.91,0.91,0,0,1-1.2,0,0.36,0.36,0,0,0-.39-0.05,2.52,2.52,0,0,1-2.24-.08,0.7,0.7,0,0,0-.79.07,1.26,1.26,0,0,1-1.42,0,1.56,1.56,0,0,0-1.81-.06,0.41,0.41,0,0,1-.4.1c-1.05-.71-2.2-0.11-3.26-0.66a0.27,0.27,0,0,0-.2-0.08,1.23,1.23,0,0,0-.31.36c-0.1.19-.21,0.31-0.35,0.25a2.43,2.43,0,0,0-2.24.12,1.36,1.36,0,0,1-1.61-.23,0.76,0.76,0,0,0-1,0,1.26,1.26,0,0,1-1.6.1,2.86,2.86,0,0,0-1.43-.3,1.85,1.85,0,0,0-1.41.41,12.06,12.06,0,0,0-1.41-.31c-0.39,0-.75.4-1.2,0.08a2.09,2.09,0,0,0-1.43-.17,1.82,1.82,0,0,1-1.23-.22,0.43,0.43,0,0,0-.4,0,16.68,16.68,0,0,1-5.57.14,3.74,3.74,0,0,1-.58-0.3,0.4,0.4,0,0,0-.39.1c-0.51.53-.92,0.13-1.33-0.35a1.4,1.4,0,0,1-.27-0.47,0.5,0.5,0,0,1,.12-0.56,1.27,1.27,0,0,1,.59-0.25l2.9,0,5.59,0c0.69,0,1.38.07,2.07,0.11,0.61,0.5,1.21-.12,1.83-0.08s1.38,0,2.07,0l3.52,0.06a1.7,1.7,0,0,1,1,.27,0.71,0.71,0,0,0,.8,0,0.72,0.72,0,0,1,.81,0,2,2,0,0,0,1.43.3c1.1-.07,2.21.23,3.29-0.33a0.19,0.19,0,0,1,.2,0c0.73,0.53,1.5.21,2.25,0.33a18.26,18.26,0,0,0,2.07.1c0.53,0.53,1.07,0,1.6,0l4.14-.06,4.14,0.07h0.79l0.42,0c0.15,0,.37.1,0.36,0,0.21-.49-0.38-1.28-0.27-1.71s-0.1-.8-0.06-1.2a1.28,1.28,0,0,0-.19-1.19,0.47,0.47,0,0,1-.08-0.19c-0.28-.62,0-1.38-0.44-2a8.06,8.06,0,0,1-.86-1.86,12.82,12.82,0,0,0-.88-1.85c-1.84-2.61-3.79-5.23-6.55-6.91a13.07,13.07,0,0,1-1.2-.76,3.92,3.92,0,0,0-1.9-.71,2.2,2.2,0,0,1-1.27-.54,0.44,0.44,0,0,0-.35-0.2,6.56,6.56,0,0,1-2.77-.4c-0.93,0-1.83-.28-2.76-0.26-0.73,0-1.45-.05-2.17,0a3.14,3.14,0,0,0-2.25.67,1.37,1.37,0,0,1-1.31.22,3.18,3.18,0,0,0-2.15.18,19,19,0,0,0-5.23,2.71Z"/><path class="cls-4" d="M150.34,103.3c7.92-29.93,23-50.36,42.93-53.72s40.87,11,58.15,36.72Z"/><path class="cls-4" d="M158.33,101.62c-2.36.59-4.89,0.85-7.26,1.37-0.66.15-.86,0.32-0.62,0.37a2.13,2.13,0,0,0,.64,0l4.07-.56a3.74,3.74,0,0,1,1.14.1c1.22,0.22,1.23.23,3.23-.27a8.19,8.19,0,0,1,1.5-.29,25,25,0,0,1,5.43.06,20.12,20.12,0,0,0,6-.4,27.76,27.76,0,0,0,3.88-.9,9,9,0,0,1,2.33-.46,14.38,14.38,0,0,0,4.57-.71,9.62,9.62,0,0,1,2.16-.17c1.61-.2,3.4-0.56,4.81-0.62a51.79,51.79,0,0,0,7.19-.91,55.85,55.85,0,0,1,7.25-1,2.11,2.11,0,0,0,1.24-.35,4.36,4.36,0,0,1,2.29-.88,34,34,0,0,0,4.63-1.09c1-.33,2.59-0.16,2.27.26-0.15.19-.38,0.38,0,0.35a7.09,7.09,0,0,0,1.49-.24c0.89-.3,1.64-0.64,2.45-1a4.1,4.1,0,0,1,1.49-.27,11.36,11.36,0,0,0,2.28-.17,21.27,21.27,0,0,1,5.39-.51,6.08,6.08,0,0,0,1.54-.23,36.85,36.85,0,0,1,9.35-1.72,4.4,4.4,0,0,0,1.46-.3,6.65,6.65,0,0,1,2.19-.29,4.12,4.12,0,0,0,.69-0.17,5.15,5.15,0,0,0,1.92-1,1.44,1.44,0,0,1,.95-0.36,3.93,3.93,0,0,1,.82.24c0.25,0.09.11,0.27,0.36,0.36a5.12,5.12,0,0,0,2.38-.29,34.61,34.61,0,0,1,3.39-.76c0.58-.1,1.18-0.19,1.81-0.26l1-.1c0.25-.06.92,0,0.61-0.25a9.56,9.56,0,0,0-1.56-2.22,56.08,56.08,0,0,1-3.56-4.54c-1.49-2.14-1.67-1.92-2.3-2.33a4.8,4.8,0,0,1-1.79-2.08c-0.7-1.31-1.45-2.53-2.25-3.81a7.45,7.45,0,0,0-1.54-1.77A6.17,6.17,0,0,1,242.07,70a19.68,19.68,0,0,0-3.84-4.25c-0.51-.44-0.68-0.43-0.42,0s0.24,0.63-.12.33A8.76,8.76,0,0,1,236.56,65c-0.45-.59-0.75-1.13-1.21-1.68a6.78,6.78,0,0,0-1.62-1.62c-1.3-.92-2-1.35-2.85-2s-1.8-1.58-4-3.13A30.06,30.06,0,0,0,224,54.7a25.54,25.54,0,0,1-3.35-2.31,12.13,12.13,0,0,0-4.37-2,8.44,8.44,0,0,1-3-1.15A8.48,8.48,0,0,0,209.65,48c-1.33-.11-2.68,0-4,0a5.44,5.44,0,0,1-1.36-.32,9,9,0,0,0-3.16-.37,25,25,0,0,0-3,.39c-1.26.31-2.58,0.19-3.76,0.4a13.5,13.5,0,0,1-2.17.32,15,15,0,0,0-2.79.4c-1,.27-1.89.67-2.83,1a15.16,15.16,0,0,1-3.36,1.55,10,10,0,0,1-2.58,1.4,11,11,0,0,0-2.16,1.09,19.91,19.91,0,0,0-3.65,3.16,6.4,6.4,0,0,1-1.2,1c-0.79.5-1.57,0.81-2.27,1.29A12,12,0,0,0,169,61.48a23.59,23.59,0,0,0-2.46,3.28,12,12,0,0,1-1.91,2.49,4.38,4.38,0,0,0-.92,1.23,3.47,3.47,0,0,0-.63,2.07,1,1,0,0,1,.31.31,2.32,2.32,0,0,1-.09.82,5,5,0,0,1-1.3,1.6,4.73,4.73,0,0,0-1.66,1.84,15.26,15.26,0,0,0-1.81,3.61l-0.53,2a6.52,6.52,0,0,1-.45,1.27,3,3,0,0,1-.67.58,3.07,3.07,0,0,0-.69.8,14.35,14.35,0,0,0-1,2.25,24.6,24.6,0,0,0-.67,3.34,3.71,3.71,0,0,1-.56,1.37,15.48,15.48,0,0,0-1.57,4l-0.67,2.06a6.86,6.86,0,0,0-.32,1.48,37.34,37.34,0,0,1-.47,4.73c-0.15.95,0.45,1.19,0.86,0.52a12.55,12.55,0,0,0,1.46-3.13A31.88,31.88,0,0,1,154.3,97a3,3,0,0,1,.61-1,3.43,3.43,0,0,0,1.19-1.86A13.78,13.78,0,0,0,157,91.2a3.18,3.18,0,0,1,.49-1.34c0.44-.81.91-1.81,1.42-2.57a10.64,10.64,0,0,0,1.53-3.39,26.52,26.52,0,0,1,1.45-3.55c0.29-1.53,1.33-2.5,2.06-3.68,0.14-.22.27-0.46,0.39-0.7,0.85-1.51,1.79-3,2.72-4.37a31.72,31.72,0,0,1,3.24-3.79,9.09,9.09,0,0,0,.86-1.18,17.44,17.44,0,0,1,1.31-1.81,40.93,40.93,0,0,1,4-3.8c0.52-.44,1-0.88,1.42-1.32s0.88-.79,1.27-1.2a3.53,3.53,0,0,1,1.15-.8c0.55-.31,1.3-0.6,1.93-1a33.54,33.54,0,0,1,5.53-2.64c2.83-.94,3.06-0.95,3.94-1.26a19.05,19.05,0,0,1,2.6-.91,7.86,7.86,0,0,1,1.43-.08c0.47,0,.85.08,1.32,0.07a9.08,9.08,0,0,0,1.44,0,4.53,4.53,0,0,1,3.09.17,10.1,10.1,0,0,0,2.56.63A14.89,14.89,0,0,0,207,53a7.77,7.77,0,0,1,2.13.4,42.87,42.87,0,0,1,5.12,1.88c4.63,2.12,4.63,2.25,6.87,3.89a2.61,2.61,0,0,0,1.54.7,4.53,4.53,0,0,1,2.27,1.28,16,16,0,0,0,4.56,3.58,5.78,5.78,0,0,1,1.62,1.49A20.74,20.74,0,0,0,233,68.41c2.15,2,4.16,4.18,6.15,6.37a3.94,3.94,0,0,0,1.42,1.11,3.56,3.56,0,0,1,2.09,2.5,2.75,2.75,0,0,0,.32.92c0.67,1,1.37,2,2.1,2.92l0.56,0.69,0.28,0.33L246,83.31l0.45,0.31a3.1,3.1,0,0,1,.71.65,1.18,1.18,0,0,1,.18.31,1.89,1.89,0,0,1-.47,0c-0.5-.11-0.45,0-0.63.16a1.3,1.3,0,0,1-.76.18,21.69,21.69,0,0,0-4.64,1,4.4,4.4,0,0,1-1.42.17,18.89,18.89,0,0,0-2.33.22l-6.54,1.13a31,31,0,0,1-4.74.49,16,16,0,0,0-4.62.83l-1.37.44a6.9,6.9,0,0,1-3.35.15,1.32,1.32,0,0,0-1.44.21,2.67,2.67,0,0,1-.75.48,6.78,6.78,0,0,1-1.5.3,26.81,26.81,0,0,0-3.87.33c-1.08.2-2.19,0.39-3.28,0.54a25.57,25.57,0,0,0-4.59,1.1,7.52,7.52,0,0,1-2.29.34c-1.4,0-2.91.07-4.41,0.14a7.37,7.37,0,0,0-1.54.22,17.5,17.5,0,0,1-3.78.63,41.31,41.31,0,0,0-7.91,1.55,20.22,20.22,0,0,1-2.37.49l-5.72,1c-0.77.15-1.53,0.37-2.24,0.57a14.53,14.53,0,0,1-2.17.61l-4.09.71a35.38,35.38,0,0,0-4.69,1.06,8,8,0,0,1-2.31.27,3.9,3.9,0,0,0-1.48.22c-0.89.3-1.9,0.58-2.72,0.89-0.31.12-.45,0.35-0.32,0.44a3.64,3.64,0,0,0,2.17.26,16,16,0,0,0,2.07-.59A5.14,5.14,0,0,1,158,101a1.16,1.16,0,0,1,1,.14C159.1,101.31,159,101.46,158.33,101.62Z"/><ellipse class="cls-3" cx="200.88" cy="94.8" rx="105.17" ry="12.42" transform="matrix(0.99, -0.17, 0.17, 0.99, -12.94, 34.64)"/><path class="cls-3" d="M233.46,98.38c12.32-2.15,25.8-5.08,38.39-8.4,6.29-1.67,12.36-3.43,17.9-5.32,2.76-1,5.4-1.94,7.8-3s4.78-2.32,5.75-3.65a6.75,6.75,0,0,1-2,2.65,12.66,12.66,0,0,0,2.08-1.26,2.78,2.78,0,0,0,1.26-2c0.19,1.23-.75,2.27-1.58,3.1a21.15,21.15,0,0,1-3,2.24,60.94,60.94,0,0,1-7.42,3.83,181.92,181.92,0,0,1-19.52,7.09c-7.21,1.93-15.49,3.9-23.66,5.66-23.72,6-37.18,9.49-57.36,12.37-4.29.6-15.2,2.1-26,3.26s-21.41,2-25,2.13c-4.35.53-16.65,1.5-18.8,1.48a119.49,119.49,0,0,1-18.54-.69,26.91,26.91,0,0,1-4.94-1.17L97,115.72a6.33,6.33,0,0,1-1.38-1.33,6.65,6.65,0,0,1-.82-1.69,6.08,6.08,0,0,1,.19-1.86,5.22,5.22,0,0,1,.84-1.72c0.42-.52.94-1,1.41-1.49a17.74,17.74,0,0,1,2.18-1.55,41,41,0,0,1,4.26-2.27,145.16,145.16,0,0,1,17.3-6.35c5.81-1.81,11.66-3.4,17.51-4.9,23.42-5.95,47-10.42,70.3-14.11C216,77.15,222,76.15,228.06,75.2c16.24-1.52,36.38-4.2,56.85-4,8.43,0.18,14.39,1.09,17.73,2.83,1.66,0.82,2.63,2.19,2.44,2.91s-0.4.22-1-.25c-2.51-1.91-15.62-1.89-37.91-.39-17.62,1.21-35.17,3.38-52.55,6S179,88.16,162.11,92c-5.32,1.21-10.56,2.69-17,4.27-2.22.54-11.19,2.67-20.14,5.29s-17.8,5.91-20.19,7.25a21.51,21.51,0,0,0-3.95,2.4,0.73,0.73,0,0,0-.29.26,0.49,0.49,0,0,0-.05.11,0.16,0.16,0,0,0,.06.18,29.1,29.1,0,0,0,4.77.85,113,113,0,0,0,15.6.56c5.27-.1,10.55-0.38,15.82-0.75,10.55-.75,21.11-1.87,31.72-3.21C189.62,106.5,211.12,103,233.46,98.38Z"/><path class="cls-3" d="M149.74,180.39h11.62a0,0,0,0,1,0,0v18.85a4.78,4.78,0,0,1-4.78,4.78h-2.07a4.78,4.78,0,0,1-4.78-4.78V180.39A0,0,0,0,1,149.74,180.39Z"/><path class="cls-2" d="M151.5,200.44a3.29,3.29,0,0,0,1.54,1.69,5,5,0,0,0,2.66.36h0.86a4,4,0,0,0,.59-0.05,3.25,3.25,0,0,0,2.52-2.18,3.7,3.7,0,0,0,.16-1.22V187c0-1.52.08-3,.15-4.54,0.08-1.68,1.1-2.7,1.63-1.6a6.66,6.66,0,0,1,.68,2c0.24,1.69.38,3.5,0.55,5.27a18.27,18.27,0,0,1-.06,4.5,33.17,33.17,0,0,0-.29,4.45c0,1,.08,1.72.07,2.87a5.69,5.69,0,0,1-1.13,3.17,5.62,5.62,0,0,1-2.77,1.89,16.58,16.58,0,0,1-3.13.48,6.44,6.44,0,0,1-1.41.08,4.5,4.5,0,0,1-1.7-.43,7.68,7.68,0,0,1-3.83-4,6.35,6.35,0,0,1-.42-2.23,10.71,10.71,0,0,1,.05-1.76,67,67,0,0,0,.43-9l0-8.83h8.06c3.28,0,5.16.48,4.56,1.85-0.3.68-.07,0.7-1,0.72l-0.91,0-8.07,0,0,8.81,0,5.17c0.08,1.67-.17,3.7.25,4.53Z"/><path class="cls-3" d="M183.43,234.64c-0.61,0-1.2.47-1.81,0-1.43,0-2.85,0-4.28,0a1.38,1.38,0,0,0-.59.28,1.11,1.11,0,0,1-1.23,0,1.83,1.83,0,0,0-1.88-.08,4.31,4.31,0,0,1-2.41,0,2.55,2.55,0,0,0-1.93-.07,2.05,2.05,0,0,1-1.52.06,1,1,0,0,1-1.2,0c-0.27-.14-3.15-0.15-4.25-0.22a9.29,9.29,0,0,0-1.2-.33,10.92,10.92,0,0,1-1.26.3c-1.1,0-2.2,0-3.29.06-2.75,0-9.13,0-9.55-.07a3.37,3.37,0,0,1-1.23-1.8c0.07-.89.5-2.76,2.34-2.74L159.38,230a20.4,20.4,0,0,0,2.22.28,3.74,3.74,0,0,1,1.94-.23c1.67,0.76,3.45.41,5.19,0.52a2.73,2.73,0,0,0,1.59-.3,9.88,9.88,0,0,1,1.53.35c2.42,0,4.83-.06,7.25-0.08a11.92,11.92,0,0,0,1.26-.3,6.29,6.29,0,0,1,1.24.3,12.52,12.52,0,0,0,1.64.07l14.85-.05c0.11,0,.21,0,0.32,0a2.41,2.41,0,0,1,1.72,2.4c0,2.08-3.51,2-5.71,2.07C190.14,235.14,185.51,234.5,183.43,234.64Z"/><path class="cls-5" d="M211.83,169.12q-5.63-33.46-11.25-66.93c-0.62-3.69-1.16-7.4-1.71-11.08-0.61-4.09,0-6.76.95-4.16a34.57,34.57,0,0,1,1.47,4.65c0.93,4.07,1.81,8.45,2.7,12.72,0.76,3.65,1.41,7.4,1.78,11s0.93,7.13,1.53,10.88c0.74,4.6,1.71,8.76,2.48,13.11s1.16,8.6,2.22,13a62.12,62.12,0,0,1,1.1,6.46,108.35,108.35,0,0,0,1.8,10.8c0.59,2.76,1.28,6.18,1.57,8.74,0.82,7.21,2,14.49,3.25,21.89s2.53,14.85,3.78,22.28q1.13,6.7,2.24,13.39c1.32,8,1.64,12.64,0,11.41-0.79-.61-0.72-0.06-1.12-2.32-0.13-.74-0.28-1.48-0.4-2.22l-12.5-73.6Z"/><path class="cls-6" d="M199.43,95.39c-0.57-3.38-1.15-6.76-1.7-10.15a14.78,14.78,0,0,1-.13-1.7,1.1,1.1,0,0,1,1.51-.86,2,2,0,0,1,.79.61,17.72,17.72,0,0,1,.87,1.85,2.62,2.62,0,0,1,.22,1.67,4.87,4.87,0,0,0,0,1.69,17.25,17.25,0,0,0,.6,2,5.1,5.1,0,0,0,.35,2,1.47,1.47,0,0,1,.18,1,2.55,2.55,0,0,0,.26,1.64,2.39,2.39,0,0,1,.32,1.31,9.6,9.6,0,0,0,.13,3.38c0.2,1.12.41,2.25,0.6,3.37q0.18,1,.33,2c0.19,1.21-.15,2-1.54,2-0.69,0-.69.09-0.77-0.25,0-.11-0.06-0.22-0.08-0.33l-2-11.14h0.06Z"/><path class="cls-3" d="M92.85,217.72c-0.36-1.1-1.07-2.06-.9-3.29l-1.1-3.88c-0.5-1.75-.44-1.52-0.53-1.8,0-.07-0.15.11-0.22,0.28a1.85,1.85,0,0,0-.1.29,1.55,1.55,0,0,0,0-.33c0-.55-0.41-0.16-0.24.16a15.08,15.08,0,0,1-3,3.41,8.82,8.82,0,0,0-2.42,2.71,7.09,7.09,0,0,1-1.83,2.21,3.39,3.39,0,0,1-1.48,1.71c-0.44.29-4,4.41-5.39,5.93-0.52.57-1.29,0.93-1.73,1.5s-0.75,1.34-1.31,2l-4,4.75C65.26,237.29,57.41,246.4,56.82,247c-0.27.25-2.52,1-2.88,0.58-0.59-.68-1.48-2.51.8-5.14l13.86-16c0.68-.79,2.75-2.58,2.94-3a13,13,0,0,1,2.2-2.92c2.63-1.89,4.56-4.67,6.78-7.08A9.22,9.22,0,0,0,82.25,211c0.15-.35,1.76-1.52,2.14-2L92,200l2.5,8.7c0.24,0.83.68,1.46,0.93,2.2a21.29,21.29,0,0,1,.35,2.33c0.21,1,.49,2,0.77,3l7.69,26.92,0.12,0.6c0.12,0.46.27,3.3-1.42,3.78-2,.57-3.78-5.81-4.93-9.79C95.82,230,94.05,221.46,92.85,217.72Z"/><polygon class="cls-4" points="109.65 133.16 100.73 133.16 117.44 232.51 145.82 232.51 109.65 133.16"/><path class="cls-4" d="M106.68,159.43l5.26,31.26a11.93,11.93,0,0,1,.25,3.18,1.89,1.89,0,0,0,.09.89,5.38,5.38,0,0,1,.73,2.59c-0.09,1.11.44,2.09,0.42,3.13a20.49,20.49,0,0,0,.6,2.65,11.68,11.68,0,0,1,.25,3.17,1.27,1.27,0,0,0,.15.86,4.62,4.62,0,0,1,.49,1.25l1.6,9.52c-0.13,1.08.4,2.08,0.46,3.08a7.92,7.92,0,0,0,.52,3.07,2.81,2.81,0,0,1,.21.89,30.06,30.06,0,0,0,.81,4.93l0.25,1a3.55,3.55,0,0,0,.86,0,9.48,9.48,0,0,1,2.71.26,2.73,2.73,0,0,0,1.31.09,13.36,13.36,0,0,1,3.63-.31,15.05,15.05,0,0,1,3.2.15c1.07,0.22,2.07-.35,3.15-0.18,0.44,0.07.91,0,1.37,0.07,0.92,0,1.7.56,2.66,0.43a6.61,6.61,0,0,1,2.68-.14,2.94,2.94,0,0,1,1.77,0,2.52,2.52,0,0,0,1.32.06c0.21-.32.17-0.3,0.4-0.25a0.29,0.29,0,0,0-.1-0.26l-0.08-.06a0.3,0.3,0,0,1-.11-0.21,2.48,2.48,0,0,1-.21-0.85,15.43,15.43,0,0,0-1.05-4,56.1,56.1,0,0,0-2.17-6c-0.77-1.82-1.23-3.8-2.34-5.45a1,1,0,0,1-.17-0.4c-0.18-2.15-1.2-4.08-1.82-6.11a6.32,6.32,0,0,0-1.15-3.36,7.27,7.27,0,0,1-.57-1.72,5.59,5.59,0,0,0-.3-1.28,31.25,31.25,0,0,1-1.86-4.18,13.73,13.73,0,0,0-1.09-2,4.34,4.34,0,0,1-.66-1.67c-0.13-1.19-1-2.23-.87-3.44a10.46,10.46,0,0,0-.67-1.69,18.28,18.28,0,0,1-1.44-2.83c-0.34-.84-0.15-1.8-0.77-2.56-0.12-1.66-.95-3.2-1.27-4.81a13.55,13.55,0,0,0-1.21-3.37c-0.53-1.09-.92-2.28-1.51-3.32s-0.86-2.25-1.51-3.27a5.7,5.7,0,0,1-.51-1.72c-0.12-.54.68-0.78,0.11-1.48-0.28-.33-0.61-0.58-0.9-0.9a0.69,0.69,0,0,1-.09-0.79,1.25,1.25,0,0,0,.19-0.72c-0.6-1.21-.24-2.72-1.3-3.8a3,3,0,0,1-.68-1.66,33.12,33.12,0,0,0-1.87-6.11l-2.2-6a8.58,8.58,0,0,1-.36-1.76,3.49,3.49,0,0,0-.44-1.24,37.36,37.36,0,0,1-2.93-7.67,2.56,2.56,0,0,1,.14-1.21c0.08-.31.33-0.35,0.59-0.16a2,2,0,0,1,.61.54,11.41,11.41,0,0,1,.78,1.64,49.67,49.67,0,0,1,1.93,5.64c0.43,1.75,1.57,3.3,1.84,5.13a12.89,12.89,0,0,0,.91,2.07c0.93,2.91,2.3,5.68,2.88,8.69,0.54,0.9.71,2,1.22,2.9a16.59,16.59,0,0,1,2,5.58c0.1,0.69.73,1.41,0.79,2.07a7.81,7.81,0,0,0,1.57,4.17,3.74,3.74,0,0,1,.69,2.13,4.86,4.86,0,0,0,1.06,2.92,2.81,2.81,0,0,1,.5,1.24c0.34,2.6,1.51,5,2.39,7.39a5.47,5.47,0,0,0,.75,1.1,4,4,0,0,1,.74,2.11,3.17,3.17,0,0,0,.47,1.24,4,4,0,0,1,.42,1.27,11.82,11.82,0,0,0,2,5.51,6.55,6.55,0,0,1,1.16,3.39,4.3,4.3,0,0,0,.93,2.51,3.9,3.9,0,0,1,1,2.46,0.88,0.88,0,0,0,.07.44c0.65,0.93.52,2,.89,3a2.75,2.75,0,0,0,.4.8,4.49,4.49,0,0,1,.9,2,8,8,0,0,0,.93,2.49,7.67,7.67,0,0,1,1.14,3,5.68,5.68,0,0,0,.81,2.54c0.4,0.57.09,1.5,0.63,2.1s0.37,1.78.92,2.51a2.82,2.82,0,0,1,.51,1.68,4.57,4.57,0,0,0,.25,1.32l2.55,6.91H146.5c-0.71,0-1.35.1-2.09,0.18l-1.06.14a1.32,1.32,0,0,1-.67,0c-1.33-.44-2.72-0.17-4.08-0.22l-4.13-.16a13.61,13.61,0,0,1-2.28-.08,8.7,8.7,0,0,0-2.67,0,15.15,15.15,0,0,1-4.56,0,6.53,6.53,0,0,0-2.66,0,5.44,5.44,0,0,1-2.69-.19,7.86,7.86,0,0,0-2.45-.37,9.76,9.76,0,0,0-.57-2.1,14.5,14.5,0,0,1-1.12-6.64c0.05-.78-0.55-1.39-0.46-2.19a4.67,4.67,0,0,0-.4-2.65,3.28,3.28,0,0,1-.18-1.33,13.34,13.34,0,0,0-.72-4.48,6.13,6.13,0,0,1-.51-3,7.72,7.72,0,0,0-1-4.37,2.59,2.59,0,0,1-.32-1.75,14.82,14.82,0,0,0-.29-4.52,2.3,2.3,0,0,0-.26-0.86,13.71,13.71,0,0,1-1.29-4.8,6.4,6.4,0,0,1,0-2.25,2.7,2.7,0,0,0-.23-1.77,3.68,3.68,0,0,1-.33-2.59c0-.14,0-0.3,0-0.45,0.06-.66.06-0.66-0.69-1.74a1.32,1.32,0,0,1-.1-1.25,1,1,0,0,0,.33-1.05,18.38,18.38,0,0,1-1.16-6.22,4,4,0,0,0-.18-1.29,38.9,38.9,0,0,1-1.37-6.72l-1.51-9.07a15.32,15.32,0,0,0-1-4,1.69,1.69,0,0,1-.11-0.87,16.43,16.43,0,0,0-.44-4.52c-0.26-2-.58-3.94-1-5.89a65.6,65.6,0,0,1-1-7.26c-0.1-1.05-.27-2.09-0.45-3.13l-0.12-.88a3.87,3.87,0,0,0,1.72-.25l6,0a2.07,2.07,0,0,1,1.2,1,0.41,0.41,0,0,1-.22.29,5,5,0,0,1-1.15.51,16.62,16.62,0,0,1-3.65.2h-2Z"/><path class="cls-2" d="M100.73,133.16H29.41l32.08,88.12a17.07,17.07,0,0,0,16,11.23h39.93Z"/><path class="cls-2" d="M52.74,134.67H31.56l5.81,16a21.2,21.2,0,0,1,1.19,4.09,3.36,3.36,0,0,0,.35,1.14,9.51,9.51,0,0,1,1.5,3.27c0.24,1.45,1.06,2.66,1.35,4s1,2.18,1.38,3.36a20.89,20.89,0,0,1,1.19,4.08,2.24,2.24,0,0,0,.4,1.1,8,8,0,0,1,.86,1.56L50,185.41c0.19,1.41,1,2.65,1.37,3.95a14.15,14.15,0,0,0,1.43,3.91,4.91,4.91,0,0,1,.47,1.13,53.91,53.91,0,0,0,2.27,6.29c0.82,1.86,1.44,3.84,2.16,5.76a16.8,16.8,0,0,1,1,3.5,4.84,4.84,0,0,0,.52,1.68,23.8,23.8,0,0,1,2,4.46,26.86,26.86,0,0,1,1.33,4.08c0.28,1.43,1.24,2.26,1.81,3.46a9,9,0,0,0,.89,1.42c0.66,0.89,1,2,2,2.66a29,29,0,0,1,2.85,1.75,6.64,6.64,0,0,1,2,.89,3.21,3.21,0,0,0,1.57.55c1.73-.11,3.22.41,5.08,0.22a8.1,8.1,0,0,1,2.42,0,27.49,27.49,0,0,0,5.47.37c2.86,0.14,5.73.14,8.6,0,2.65-.1,5.34.15,7.94-0.33a1.75,1.75,0,0,1,.59,0c2.78,0.57,5.69.27,8.53,0.38a8.14,8.14,0,0,0,2.35.29,3.83,3.83,0,0,0,1.55-.22l0.14,0a4.48,4.48,0,0,1-.06-0.91,10,10,0,0,0-.14-1.75,55.69,55.69,0,0,1-1.33-6,24.35,24.35,0,0,0-.84-2.89,7.71,7.71,0,0,1-.45-2.36c0-1.59-.74-3.2-0.43-4.73a18.55,18.55,0,0,0-.46-2.39,32.51,32.51,0,0,1-1.08-4.1c-0.23-1.2.08-2.39-.45-3.55,0.09-2.19-.54-4.44-0.65-6.61a24.25,24.25,0,0,0-.78-4.73c-0.39-1.57-.63-3.23-1.08-4.76s-0.57-3.17-1.09-4.69a10.15,10.15,0,0,1-.29-2.38c-0.05-.73.79-0.81,0.3-1.89-0.23-.51-0.54-0.93-0.78-1.43a1.15,1.15,0,0,1,0-1.05,1.78,1.78,0,0,0,.28-0.88c-0.44-1.75.11-3.6-.82-5.32a5.35,5.35,0,0,1-.47-2.35,59.37,59.37,0,0,0-1.09-8.49l-1.43-8.5a14.94,14.94,0,0,1-.14-2.4,6.31,6.31,0,0,0-.28-1.74,66.69,66.69,0,0,1-2-10.82,4,4,0,0,1,.3-1.53c0.12-.38.38-0.35,0.62,0a3,3,0,0,1,.54.88,20.25,20.25,0,0,1,.57,2.36c0.46,2.62,1,5.22,1.22,7.89,0.21,2.4,1.15,4.75,1.19,7.2a22.88,22.88,0,0,0,.65,3c0.56,4.05,1.58,8.06,1.77,12.14,0.43,1.33.46,2.74,0.85,4.13a29.65,29.65,0,0,1,1.24,7.82c0,0.92.55,2,.53,2.93a13.92,13.92,0,0,0,1,5.88,6.66,6.66,0,0,1,.42,3,8.62,8.62,0,0,0,.69,4.1,5,5,0,0,1,.35,1.76c0,3.48.88,6.88,1.45,10.3a9.39,9.39,0,0,0,.61,1.65,7,7,0,0,1,.47,3,5.67,5.67,0,0,0,.31,1.75,7.25,7.25,0,0,1,.26,1.77,21.1,21.1,0,0,0,1.27,7.74,11.65,11.65,0,0,1,.73,4.74A7.16,7.16,0,0,0,118,229a7.77,7.77,0,0,0,.21.88l0.14,0.43,0.22,0.75c0.28,0.94.56,2,.77,3a21.73,21.73,0,0,1-3.87-.18,1.59,1.59,0,0,0-.59-0.09c-1.46.29-2.8-.21-4.21-0.19a4.81,4.81,0,0,0-1.19.1,8,8,0,0,1-3,.16,14.32,14.32,0,0,0-3.55,0,13.67,13.67,0,0,1-4.24.06,10.12,10.12,0,0,0-3.56-.1c-0.91.18-1.93-.42-2.94-0.12-1.22.36-2.4-.26-3.59,0a5,5,0,0,1-2.36-.09,8,8,0,0,0-1.78-.22c-2.91,0-5.64.09-8.69,0l-1.93-.11A4.11,4.11,0,0,1,72,233a48.5,48.5,0,0,1-5.11-2.8,18,18,0,0,1-4-4.23,10.6,10.6,0,0,1-1.57-2.8A26.66,26.66,0,0,0,60,219.73,27.08,27.08,0,0,1,57.86,214a11.69,11.69,0,0,0-1.2-3.36,9.66,9.66,0,0,1-1.06-3.45A13,13,0,0,0,53.9,202a25.89,25.89,0,0,1-3.09-8.48c-0.18-1-1-1.74-1.11-2.78a8.3,8.3,0,0,0-1.19-3.39,5.89,5.89,0,0,1-.58-1.7A23.83,23.83,0,0,0,45.88,180a10.89,10.89,0,0,1-1.41-3.88,13.75,13.75,0,0,0-2.26-5.54,4.6,4.6,0,0,1-.84-2.23,26.44,26.44,0,0,0-1.63-5.83,4.08,4.08,0,0,0-.51-1.09,24.37,24.37,0,0,1-2.72-6.07,11.17,11.17,0,0,1-.67-2.92,4.79,4.79,0,0,0-.76-2.26A6.51,6.51,0,0,1,34,146.8l-0.11-.59c-0.13-.86-0.14-0.86-1.21-2.17a2.31,2.31,0,0,1-.47-1.61,1.49,1.49,0,0,0,0-1.41,34.59,34.59,0,0,1-3.06-8h0.16a8.88,8.88,0,0,0,1.93,0,70.59,70.59,0,0,1,9.23-.24l12.32,0a27.44,27.44,0,0,0,5.49-.28,3,3,0,0,1,1.17,0,29.28,29.28,0,0,0,6.07.31c2.66,0.07,5.34.08,8,0,3.29-.1,6.56,0,9.82.18,1.41,0.08,2.83.08,4.22,0.08a11.57,11.57,0,0,0,3.57-.23l8,0a2.77,2.77,0,0,1,1.61,1,0.44,0.44,0,0,1-.29.29,7.91,7.91,0,0,1-1.54.51,29.76,29.76,0,0,1-4.89.2Z"/><path class="cls-1" d="M115.83,198.16q5,13.64,9.92,27.29c0.54,1.5,1,3,1.5,4.56,0.53,1.69-.06,3.06-1,2.14a7.3,7.3,0,0,1-1.35-1.71c-0.84-1.59-1.62-3.34-2.42-5a20.39,20.39,0,0,1-1.57-4.48,36.85,36.85,0,0,0-1.33-4.52c-0.65-1.89-1.52-3.51-2.21-5.27a40.18,40.18,0,0,0-2-5.31,11.51,11.51,0,0,1-1-2.63,19.82,19.82,0,0,0-1.58-4.41,18.5,18.5,0,0,1-1.39-3.54,74.39,74.39,0,0,0-2.83-9q-1.67-4.54-3.34-9.07-1-2.73-2-5.46c-1.17-3.26-1.41-5.28.09-5.16,0.74,0.06.68-.17,1,0.75,0.12,0.3.24,0.6,0.35,0.9l11,30Z"/><path class="cls-1" d="M96.48,145c1.28,3.51,2.56,7,3.82,10.53a17.49,17.49,0,0,1,.49,1.79,1.07,1.07,0,0,1-1.31,1.17,2.13,2.13,0,0,1-.91-0.52,20.65,20.65,0,0,1-1.25-1.83,3.09,3.09,0,0,1-.57-1.74,5.76,5.76,0,0,0-.34-1.8,20.29,20.29,0,0,0-1-2,6,6,0,0,0-.77-2,1.75,1.75,0,0,1-.38-1,3,3,0,0,0-.6-1.7,2.8,2.8,0,0,1-.59-1.34,11.36,11.36,0,0,0-.85-3.58c-0.44-1.16-.88-2.33-1.31-3.49q-0.39-1.05-.76-2.11c-0.44-1.26-.27-2.14,1.1-2.38,0.68-.12.67-0.21,0.81,0.14,0,0.12.11,0.22,0.15,0.34L96.54,145Z"/><path class="cls-1" d="M102.75,220c1.18,3.23,2.36,6.46,3.52,9.7a14.88,14.88,0,0,1,.44,1.65,1.1,1.1,0,0,1-1.32,1.12,2,2,0,0,1-.89-0.46,17.76,17.76,0,0,1-1.2-1.67,2.64,2.64,0,0,1-.52-1.61,4.94,4.94,0,0,0-.29-1.67,17.28,17.28,0,0,0-.95-1.81,5.13,5.13,0,0,0-.71-1.88,1.49,1.49,0,0,1-.35-0.93,2.58,2.58,0,0,0-.55-1.57,2.4,2.4,0,0,1-.55-1.24,9.67,9.67,0,0,0-.75-3.31c-0.4-1.07-.81-2.14-1.21-3.22q-0.36-1-.7-1.94c-0.4-1.16-.21-2,1.15-2.24,0.67-.13.67-0.21,0.8,0.11,0,0.11.1,0.21,0.14,0.31l4,10.63Z"/><path class="cls-1" d="M83.22,166.29Q88.44,180.62,93.65,195c0.57,1.58,1.07,3.19,1.58,4.79,0.56,1.77,0,3.2-.92,2.22a7.91,7.91,0,0,1-1.38-1.81c-0.87-1.68-1.69-3.51-2.52-5.3a22.49,22.49,0,0,1-1.65-4.71,41,41,0,0,0-1.41-4.74c-0.68-2-1.59-3.69-2.31-5.54A44.38,44.38,0,0,0,83,174.29a12.67,12.67,0,0,1-1-2.76,21.89,21.89,0,0,0-1.66-4.63,20.35,20.35,0,0,1-1.46-3.72,82.21,82.21,0,0,0-3-9.49q-1.75-4.77-3.51-9.54-1.05-2.87-2.08-5.74c-1.23-3.42-1.51-5.54,0-5.39,0.75,0.08.68-.16,1.05,0.8,0.12,0.32.26,0.63,0.37,0.94l11.58,31.5Z"/><path class="cls-1" d="M55,155.37q-3.18-8.74-6.36-17.49c-0.35-1-.62-2-0.91-2.94s0.41-2.1,1.16-1.57a3.66,3.66,0,0,1,1.09,1c0.62,1,1.17,2.09,1.74,3.16a8.42,8.42,0,0,1,1,2.88,15.48,15.48,0,0,0,.75,2.93c0.4,1.21,1.05,2.22,1.51,3.35a16.52,16.52,0,0,0,1.26,3.4,4.73,4.73,0,0,1,.63,1.68,8.21,8.21,0,0,0,1,2.83,7.67,7.67,0,0,1,.92,2.26,30.85,30.85,0,0,0,1.67,5.85c0.72,1.94,1.44,3.87,2.15,5.81q0.64,1.75,1.26,3.5c0.74,2.09.74,3.45-.68,3.53-0.71,0-.67.19-0.91-0.39-0.08-.19-0.17-0.38-0.24-0.57l-7.11-19.2Z"/><line class="cls-7" x1="109.65" y1="133.16" x2="145.82" y2="232.51"/><path class="cls-7" d="M140.84,225.19a9.42,9.42,0,0,1-.79-3.14,4.53,4.53,0,0,0-1.14-2.84,1.85,1.85,0,0,1-.31-1.15,3.87,3.87,0,0,0-.85-2.32,2.12,2.12,0,0,1-.45-1.14,11.12,11.12,0,0,0-1.95-5.39,2.38,2.38,0,0,1-.37-1.15,17.78,17.78,0,0,0-.49-1.85c-1.84-2.41-2.49-5.55-3.49-8.44a11.75,11.75,0,0,1-.31-2.43c-0.07-.61-0.15-1.23-0.23-1.84-0.85-.9-0.7-2.37-1.37-3.35a2.12,2.12,0,0,1-.39-1.17,4.55,4.55,0,0,0-.85-2.37,7.9,7.9,0,0,1-1.5-4.15,3.09,3.09,0,0,0-.48-1.1,6.38,6.38,0,0,1-.48-1.8,5.23,5.23,0,0,1-.77-1.65,4.35,4.35,0,0,0-1.1-2.84,14.59,14.59,0,0,1-1.11-1.25,2.85,2.85,0,0,1-.52-1.1,17.55,17.55,0,0,0-1.47-5.61q-5.29-14.47-10.55-29a21.74,21.74,0,0,1-.79-2.53,3,3,0,0,1,.13-2.1c0.12-.21.37-0.42,0.55-0.28a28,28,0,0,1,2.27,2,4,4,0,0,1,.64,1c0.63,1.37.94,3,1.89,4.15a4.07,4.07,0,0,1,.28,1.16,21.88,21.88,0,0,0,1.47,4.4c0.43,1,1.07,1.87,1.44,2.87s0.41,2.11.76,3.12q1.95,5.7,4,11.36,5.13,14.18,10.3,28.35a15.51,15.51,0,0,1,1.12,3.78,4,4,0,0,0,.64,1.7,35.43,35.43,0,0,1,2.4,6.18c0.19,0.59.13,1.22,0.27,1.84a18.42,18.42,0,0,0,.57,1.88c0.28,0.83.95,1.24,1.14,2.19,0.13,0.63.19,1.26,0.38,1.88a10.22,10.22,0,0,0,1.24,3,19,19,0,0,1,2.46,6,6,6,0,0,0,1.08,2.92,4,4,0,0,1,.32,1.23,3,3,0,0,0,.63,1.69,3.29,3.29,0,0,1,.72,1.74,4,4,0,0,0,.73,2.29,2.41,2.41,0,0,1,.19,1.09c-0.08,1.2-.33,1.37-1.14,1a10.45,10.45,0,0,1-1.12-.52,1.71,1.71,0,0,1-.71-0.69C142.92,228.86,141.42,227.48,140.84,225.19Z"/><path class="cls-1" d="M74,207.69q-3.93-10.79-7.85-21.59c-0.43-1.19-.79-2.41-1.16-3.62s0.26-2.5,1.07-1.81a5,5,0,0,1,1.2,1.3c0.71,1.24,1.36,2.61,2,3.94a12.77,12.77,0,0,1,1.23,3.55,23.28,23.28,0,0,0,1,3.59c0.51,1.5,1.25,2.76,1.8,4.15a25.32,25.32,0,0,0,1.55,4.2,7.16,7.16,0,0,1,.77,2.08A12.45,12.45,0,0,0,76.89,207,11.59,11.59,0,0,1,78,209.78,46.72,46.72,0,0,0,80.17,217q1.32,3.59,2.65,7.18,0.79,2.16,1.56,4.32c0.92,2.58,1,4.22-.43,4.21-0.72,0-.68.18-1-0.54-0.09-.24-0.2-0.47-0.29-0.71L74,207.72Z"/><path class="cls-2" d="M174.39,218.28c-0.35-1.08-1.06-2-.88-3.23l-1.08-3.81-0.54-1.9-0.12-.39c0-.07-0.16.07-0.24,0.21-0.2.35-.06,0.29-0.13,0,0-.15-0.1-0.21-0.17-0.2a0.2,0.2,0,0,0-.15.14c0,0.08-.36.57-0.48,0.87a14.53,14.53,0,0,1-2.94,3.34,8.49,8.49,0,0,0-2.38,2.66,6.85,6.85,0,0,1-1.79,2.16,3.28,3.28,0,0,1-1.46,1.68c-0.43.28-3.93,4.32-5.3,5.81-0.51.55-1.27,0.9-1.7,1.47s-0.74,1.32-1.29,2l-3.94,4.65c-3.3,3.87-11,12.79-11.61,13.34-0.26.25-2.49,1-2.85,0.55-0.59-.68-1.48-2.5.76-5.07l13.63-15.67c0.67-.77,2.71-2.52,2.89-2.92a12.49,12.49,0,0,1,2.16-2.87c2.6-1.84,4.48-4.57,6.67-6.94a8.88,8.88,0,0,0,1.7-2.42c0.15-.35,1.74-1.48,2.11-1.92l4.29-5a3.78,3.78,0,0,1,2.31-1.34,2.82,2.82,0,0,1,2.41.94,4.43,4.43,0,0,1,.73,1.15c0.2,0.5.33,1.08,0.49,1.62l0.67,2.34c0.24,0.82.68,1.44,0.92,2.16a20.58,20.58,0,0,1,.34,2.29c0.21,1,.48,2,0.76,2.95l7.55,26.42,0.12,0.59c0.11,0.46.25,3.24-1.44,3.72-2,.57-3.74-5.69-4.88-9.6C177.29,230.36,175.57,222,174.39,218.28Z"/><circle class="cls-2" cx="76.79" cy="70.65" r="18.35"/><path class="cls-2" d="M57.18,72.34a19.67,19.67,0,0,1,35.57-13.2A18.44,18.44,0,0,1,96,66.87a6.4,6.4,0,0,1-.22,3.4c-0.26.6-.61,0.54-0.89-0.4s-0.66-1.95-1-3.18a18,18,0,0,0-4.34-7.34A25.28,25.28,0,0,0,83.72,55a14.61,14.61,0,0,0-7-1.74,16.66,16.66,0,0,0-8.36,2.46,14.8,14.8,0,0,0-6.15,6,41.74,41.74,0,0,0-1.76,3.9,13.07,13.07,0,0,0-.62,7.09,24.31,24.31,0,0,0,1.75,5.5,15.86,15.86,0,0,0,10.75,9.2,17.39,17.39,0,0,0,20.13-9.37c2.23-4.9,2-8.29,3.31-7.22,0.57,0.54.62,0.14,0.53,1.87L96.08,74.4a19.79,19.79,0,0,1-7.19,11.75,19.72,19.72,0,0,1-25.81-1.33,19.84,19.84,0,0,1-6-12.47h0.06Z"/><rect class="cls-3" x="209.33" y="220.67" width="28.66" height="26.76"/><path class="cls-3" d="M239.26,228.27l0.09,19.18c0,0.46,0,.91,0,1.33h-7.57c-4.65.75-10.86,0.44-15.55,1a15.71,15.71,0,0,1-3.27-.08l-0.93-.08-1.58-.06-3.19-.06c0-1.58,0-3.14,0-4.68l-0.12-2.54-0.41-5c0-7.61.06-14.06,0.08-19.19l9.71,0.1,5.78,0.14c3.42,0.11,6,.23,8,0.38,4,0.29,5.67.66,6.74,1.05,2.26,0.83.16,1.53-4,2-3.11.33-6.21,0.74-10.17,0.9-2.14.09-4.36,0.11-6.64,0.11l-3.45,0h-1.05l-0.37,0,0,0.3,0,0.62v3l-0.4,4.91,0.26,3.37-0.29,3.4,0.41,5.16,0,1.91,14-.09c0.83-.07,2-0.14,3-0.27a25.14,25.14,0,0,1,4.32-.19c1.23,0.05,3.17.19,2.87,0.35l0.12-.07a1.45,1.45,0,0,0-.09-0.23l0-.07,0-.8,0.74-13.88C236.91,215.33,239.2,220.44,239.26,228.27Z"/><path class="cls-6" d="M153.25,168l0.93,1.69c0.11,0.65.29,1.36,0.34,2.07,0.46,6.34,1.27,12.65,1.86,19a26.08,26.08,0,0,1,.08,6,3.08,3.08,0,0,1-.29.73c-0.58-.66-0.4-1.62-0.65-2.41s-0.4-1.37-.61-2.12a20.74,20.74,0,0,0,.11-2.48,15.11,15.11,0,0,0-.46-2.09,21,21,0,0,1-.4-2.12q-0.88-8.41-1.72-16.83A1.29,1.29,0,0,1,153.25,168Z"/><rect class="cls-2" x="198.52" y="212.28" width="28.66" height="8.84" transform="translate(-37.51 44.7) rotate(-11.02)"/><path class="cls-2" d="M200.83,221.94v0L226,217.09V217l-0.4-2.33-0.39-2.54c-0.29-1.87.5-3.21,1.25-2.08a8.21,8.21,0,0,1,1.09,2c0.3,0.91.59,1.87,0.86,2.83l0.41,1.45,0.66,2.77,0.07,0.31a34.6,34.6,0,0,1-6.32,1.15,42.45,42.45,0,0,0-5,.67c-2.1.37-4,1-5.94,1.43a46,46,0,0,0-5.94,1.18,13.12,13.12,0,0,1-2.94.59c-0.61,0-1.2.12-1.78,0.21-0.79.13-2,.37-3,0.6L198,222.72a22.61,22.61,0,0,1-.89-4.09L196.93,217l-0.44-2.86,4.56-.76,3.37-.64,10.15-2,6.1-1.18c3.64-.69,5.81-0.64,5.41.83-0.2.73,0.05,0.7-1,.92l-1,.22-24.32,4.83,1.11,5.56Z"/><rect class="cls-3" x="226.59" y="206.23" width="34.63" height="8.84" transform="translate(-35.78 50.53) rotate(-11.02)"/><path class="cls-3" d="M229,216.45v0l31-6h0a0.73,0.73,0,0,0,0-.15l-0.25-1.47-0.47-2.94c-0.34-2.17.41-3.69,1.2-2.36a10.54,10.54,0,0,1,1.16,2.38l0.79,2.7,0.4,1.51,0.62,2.65-2.22.52-1.79.43-1.46.31a26.25,26.25,0,0,1-2.89.39,57,57,0,0,0-5.78.83c-2.44.44-4.6,1.13-6.9,1.62a61.83,61.83,0,0,0-6.89,1.36,17.64,17.64,0,0,1-3.41.68c-0.71.07-1.39,0.15-2.06,0.26l-1.46.27-1.83.38L226,216.9a28.46,28.46,0,0,1-1-4.61c0-.5-0.31-2.37-0.52-3.71l5.86-.94,4.61-.86,11.77-2.33,7.07-1.37c4.22-.8,6.73-0.82,6.22.67-0.25.74,0,.7-1.15,1l-1.17.26-29.82,5.9,1.1,5.56Z"/><path class="cls-5" d="M277.66,233.35c1,1.26,2.57,1.86,3.15,3.25l-0.45.5c0,0.23,0,.46,0,0.69a5,5,0,0,1-2.49.66l-1.12-.84c-1.5,0-2.68.79-3.58,0a23,23,0,0,1-2.32-1.86,7.94,7.94,0,0,1-1.14,0l-7.41-3.2h-1.19c-0.62-.87-1.76-1.08-2.65-1.87-1.47-1.3.4-4.62,2.72-3.62a31.61,31.61,0,0,0,5.53,2.13,4.07,4.07,0,0,1,1,.07c0.23,0.11,1.8,1.06,2.12,1.16a3.19,3.19,0,0,0,1.07,0Z"/><rect class="cls-5" x="237.99" y="220.67" width="34.63" height="26.76"/><path class="cls-5" d="M272.62,248.82H238a1.39,1.39,0,0,1-1.39-1.39V220.67a1.39,1.39,0,0,1,1.39-1.39h34.63a1.39,1.39,0,0,1,1.39,1.39v26.76A1.39,1.39,0,0,1,272.62,248.82ZM239.38,246h31.85v-24H239.38v24Z"/><path class="cls-3" d="M250,236.18h24.51c1.35,0,2.7.08,4,.15S281,237.44,280,238a5.5,5.5,0,0,1-1.74.68c-1.51.24-3.12,0.38-4.69,0.55a14.54,14.54,0,0,1-4-.06,26.55,26.55,0,0,0-4-.29c-1.68,0-3.22.23-4.82,0.27a28.67,28.67,0,0,0-4.78,0,8.2,8.2,0,0,1-2.37,0,14.18,14.18,0,0,0-4,0,13.21,13.21,0,0,1-3.21.1,11.8,11.8,0,0,0-1.43-.15l-1.75-.92-1.53-.76c-1-.49-2.08-1-3.15-1.41l-7.51-3.21-4.5-2c-2.68-1.18-4-2.27-3-3.31,0.51-.52.34-0.62,1.1-0.3l0.76,0.3,20.18,8.62,4.37,0v0.07Z"/><ellipse class="cls-1" cx="282.32" cy="148.2" rx="5.97" ry="15.92" transform="translate(-14.28 31.18) rotate(-6.17)"/><path class="cls-1" d="M290.07,150.53a0.79,0.79,0,0,1-.05,1.06c-0.21.29,0.21,0.6,0.13,0.93a1.48,1.48,0,0,0,.41.82c0.08,0.14.17,0.28,0,.41a1.19,1.19,0,0,0-.34.81,2.72,2.72,0,0,1-.67,1.47,0.82,0.82,0,0,0-.25.52,22.26,22.26,0,0,0-.74,3,0.8,0.8,0,0,1-.11.26c-0.12.26-.68,0.3-0.57,0.66a1.24,1.24,0,0,1-.06.72,8.1,8.1,0,0,1-.39.93,3.42,3.42,0,0,0-.42,1.35,1.32,1.32,0,0,1-1.27,1.11,0.5,0.5,0,0,0-.5.21,2,2,0,0,1-1.69.57,2.1,2.1,0,0,1-1-.17,0.27,0.27,0,0,0-.21,0c-0.48.23-.68-0.28-1.08-0.31a3.87,3.87,0,0,1-1.49-.66,0.84,0.84,0,0,1-.33-0.38,4,4,0,0,1-.26-1.17,0.55,0.55,0,0,0-.3-0.49,0.94,0.94,0,0,1-.58-1.17c0.08-.21-0.14-0.24-0.25-0.34-0.34-.31-0.63-0.64-0.95-1,0.21-.4,0-0.58-0.35-0.75a0.36,0.36,0,0,1,0-.43,1.33,1.33,0,0,1,.3-0.35c0.19-.2.19-0.32-0.09-0.35-0.62-.06-0.94-0.31-0.84-0.69a0.7,0.7,0,0,0-.21-0.94,0.59,0.59,0,0,1-.21-0.38c-0.13-.35.17-0.78-0.16-1.1a1.77,1.77,0,0,1-.26-0.94,1.07,1.07,0,0,1,.23-1.15c0.13-.14,0-0.26-0.21-0.36s-0.34-.3-0.13-0.51,0.37-.58.09-0.82a1.1,1.1,0,0,1-.3-1.47,1.48,1.48,0,0,0,.27-0.84,2.15,2.15,0,0,0-.36-1.34,0.42,0.42,0,0,1,.1-0.67c0.27-.24.2-0.44-0.07-0.65a0.46,0.46,0,0,1-.2-0.67,0.81,0.81,0,0,0,.1-0.94,2.2,2.2,0,0,1-.07-1.24,0.94,0.94,0,0,1,.32-0.52,0.56,0.56,0,0,0,.07-0.53,5.8,5.8,0,0,1-.11-1.38,3.21,3.21,0,0,1,.41-1.2,3.58,3.58,0,0,0,.11-1,1.23,1.23,0,0,0,.2-0.95,0.4,0.4,0,0,1,0-.28,2.53,2.53,0,0,1,.75-1.4,2,2,0,0,1,.37-1.41,5.27,5.27,0,0,1,.91-1.42,4.73,4.73,0,0,1,1.9-1.43,3.58,3.58,0,0,1,2.52.12c2.31,1.26,3.14,3.35,4,5.25a0.62,0.62,0,0,1,0,.57c-0.05.1-.11,0.25,0,0.28a1.29,1.29,0,0,1,.75,1.14,40.28,40.28,0,0,1,1.06,4.75,4.12,4.12,0,0,0,.6,1.94,0.44,0.44,0,0,1-.07.4,1.18,1.18,0,0,0,.19,1.19c0.11,0.16-.38.35-0.8,0.33-1-.06-1.64-0.36-1.44-0.77a4,4,0,0,1,.37-0.54,0.52,0.52,0,0,0-.09-0.76c-0.34-.32-0.76-0.61-1.06-0.92s-0.19-.47.3-0.78c0.21-.13.48-0.28,0.32-0.38a3.6,3.6,0,0,0-.54,0,0.54,0.54,0,0,1-.34-0.14,0.88,0.88,0,0,1,.09-1.16c0.08-.09.08-0.21,0-0.24a1,1,0,0,1-.67-1.09c-0.19-.63-0.4-1.27-0.62-1.88a7.64,7.64,0,0,1-.25-1,0.93,0.93,0,0,0-.36-0.88,0.85,0.85,0,0,0-.32-0.87,0.61,0.61,0,0,0-.4-0.53c-0.19,0-.19-0.22-0.19-0.4s0-.67,0-1c0-.19-0.18-0.13-0.39,0s-0.4.22-.42,0.08,0-.4-0.24-0.29-0.17,0-.21-0.12c-0.17-.63-0.89-0.73-1-0.06-0.06.39-.21,0.48-0.71,0.51a0.45,0.45,0,0,0-.19.21,1.21,1.21,0,0,1-.77.52c-0.26,0-.09.31,0,0.5s-0.24.11-.52,0.07-0.26,0,0,.2a0.78,0.78,0,0,1,.46.61,0.58,0.58,0,0,1-.4.49c-0.13.07-.34,0.18-0.24,0.29,0.39,0.49.06,0.77-.13,1.11a1.1,1.1,0,0,0-.2.72,2.38,2.38,0,0,1-.25,1.25,8.7,8.7,0,0,0-.14.87,2.21,2.21,0,0,0-.1.75,2.21,2.21,0,0,1-.49,1.92,0.2,0.2,0,0,0,0,.26,2.92,2.92,0,0,1,.36,1.29,1.6,1.6,0,0,1-.22,1.17,2.29,2.29,0,0,1,.27,1.55,44.86,44.86,0,0,0,.52,4.83,2.16,2.16,0,0,1,0,.66,1.27,1.27,0,0,0,.19.88,0.68,0.68,0,0,1,0,.81s-0.08.11,0,.14c0.79,0.72.6,1.74,1.06,2.56s0.65,1.63,1,2.41l0.2,0.34c0.26,0.46.95,0.58,1,1.2a0.66,0.66,0,0,1,.58.64,1.32,1.32,0,0,0,.91.86,3.3,3.3,0,0,0,.81.16,1.43,1.43,0,0,0,.61-0.21,1.15,1.15,0,0,0,.83-0.94c0.63-.07.53-0.89,0.85-1.33a8,8,0,0,0,.73-1.64,24.58,24.58,0,0,0,1.23-4.56,1.7,1.7,0,0,1,.55-1.26,0.71,0.71,0,0,0,.23-0.51,18.53,18.53,0,0,0,.08-2,0.54,0.54,0,0,0-.1-0.39,2,2,0,0,1-.48-1.55,2.28,2.28,0,0,0-.65-1.1,0.34,0.34,0,0,1,.15-0.38,1.5,1.5,0,0,1,.54-0.12c1,0.39,1.79.89,1.86,1.56C289.82,149.66,290.8,150.08,290.07,150.53Z"/><ellipse class="cls-1" cx="181.36" cy="20.36" rx="30.67" ry="6.7"/><path class="cls-1" d="M194.87,27.89a133.51,133.51,0,0,1-17.05.64,3.58,3.58,0,0,1-1.7-.33,0.57,0.57,0,0,0-.48-0.07,1.63,1.63,0,0,1-1.45.22c-0.57-.3-1.15,0-1.69-0.2a6.73,6.73,0,0,0-1.47,0,3.52,3.52,0,0,1-1.68-.41,0.4,0.4,0,0,0-.47,0,1.56,1.56,0,0,1-.73.2c-1.73-.15-3.46-0.39-5.18-0.67-0.51-.39-1.14-0.12-1.66-0.34a2.41,2.41,0,0,0-1.66-.32,0.79,0.79,0,0,1-.5,0,11.46,11.46,0,0,0-2.66-.7,11.88,11.88,0,0,1-2.47-.75,3,3,0,0,1-1.34-.87,1.18,1.18,0,0,0-.65-0.46A3.08,3.08,0,0,1,150,22.43a3.23,3.23,0,0,1-.54-0.9c-0.09-.39-0.17-0.79-0.22-1.18a7.1,7.1,0,0,1,.29-0.78c0.4-.88.61-1.8,1.29-2.17a9.09,9.09,0,0,1,.78-0.48,13.19,13.19,0,0,0,1.6-.38,1.91,1.91,0,0,1,1.35-.71,1,1,0,0,1,.93-0.34,0.86,0.86,0,0,0,.72-0.16c0.54-.73,1.4-0.51,2.07-0.82a1.39,1.39,0,0,1,1-.23,4.92,4.92,0,0,0,2.24-.08,20.6,20.6,0,0,0,3.42-.51A10.44,10.44,0,0,0,168,13a0.3,0.3,0,0,1,.23,0c1.17,0.44,2.3.06,3.44,0.08a2,2,0,0,0,1.9-.05,2.11,2.11,0,0,1,1,0,1.75,1.75,0,0,0,.71.11,9.07,9.07,0,0,1,2.43-.4,4.92,4.92,0,0,0,1.19-.37,1.28,1.28,0,0,1,1-.06c0.63,0.29,1.32-.22,1.9.34a3,3,0,0,0,1,0,5.57,5.57,0,0,1,1.7-.37c0.49,0,.93.51,1.43,0.19,0.85,0.48,1.78.26,2.63,0.56a4,4,0,0,0,1.92.12c0.66-.08,1.32,0,2-0.12s1.29,0.06,2-.12a1.7,1.7,0,0,1,.95.21c0.29,0.1.17,0.93,0.66,0.68,0.23-.12.45-0.32,0.68-0.45s0.3,0,.39.24a0.86,0.86,0,0,0,.27.46c0.74,0,1.3.88,2.12,0.38a0.92,0.92,0,0,1,1,.09,11.57,11.57,0,0,0,3.29,1c1.12,0.26,2.24.53,3.33,0.9a2.64,2.64,0,0,1,.81.57,1.09,1.09,0,0,0,.66.26A4.41,4.41,0,0,1,212,19.63a0.85,0.85,0,0,1-.4.66,0.84,0.84,0,0,1-.62,0,2.27,2.27,0,0,0-.41,0,0.58,0.58,0,0,1-.32-0.21c-0.48-.43-1.28-0.84-2.09-1.41s-1.78-.34-2.55-0.93a3.19,3.19,0,0,0-1.14-.17c-1.5-.5-3.11-0.5-4.59-1.23-0.56.11-1.07-.18-1.65-0.11a4.83,4.83,0,0,1-3.06-.46c-0.34-.18-0.84.12-1.16-0.09a2.22,2.22,0,0,0-2.34-.16,1.1,1.1,0,0,1-1.17-.17,1.43,1.43,0,0,0-1.63-.1,0.8,0.8,0,0,1-.7,0c-1.32-.65-2.72-0.39-4.08-0.43a1.9,1.9,0,0,0-.69.32,1.15,1.15,0,0,1-1.18,0,0.91,0.91,0,0,0-.7,0,1.2,1.2,0,0,1-.7,0,3.37,3.37,0,0,0-3.08,0,1.91,1.91,0,0,1-1.89,0,1.24,1.24,0,0,0-1.41.08,1.17,1.17,0,0,1-1.39.15,0.29,0.29,0,0,0-.23-0.08c-0.56.32-1.11-.13-1.66-0.07a0.8,0.8,0,0,0-.46.14,1.31,1.31,0,0,1-1.14.25,2.24,2.24,0,0,0-1.38.17,2.24,2.24,0,0,1-1.64.24,1.62,1.62,0,0,0-1.39.08c-0.32.23-.81-0.33-1.16,0s-1-.11-1.38.23a0.86,0.86,0,0,1-.92.07,1.38,1.38,0,0,0-.72-0.08,31.61,31.61,0,0,0-3.25.79,2.49,2.49,0,0,0-.62.37,0.72,0.72,0,0,1-.61.3,3.21,3.21,0,0,0-2,.51,11.69,11.69,0,0,0-1.85.78,4.36,4.36,0,0,1-.78.59,0.68,0.68,0,0,0-.33.33,1.83,1.83,0,0,0,0,.36l0,0a9.44,9.44,0,0,1,1,1.21,1.45,1.45,0,0,0,1.1.65,1.56,1.56,0,0,1,1.17.72,2,2,0,0,0,1.94.82,4.54,4.54,0,0,1,3.43.86c0.36,0.25.82-.16,1.18,0.14a1.32,1.32,0,0,0,1.39.29,1,1,0,0,1,.69.15,3.59,3.59,0,0,0,2.37.37,1.85,1.85,0,0,1,1.62.2,2.27,2.27,0,0,0,2.37,0,0.78,0.78,0,0,1,.94,0,4.16,4.16,0,0,0,2.35.63,0.7,0.7,0,0,0,.48-0.08,4.26,4.26,0,0,1,2.64-.35,2,2,0,0,1,1.16.41,0.81,0.81,0,0,0,.94.09,1.13,1.13,0,0,1,1.38.12c0.07,0,.16.06,0.23,0.1,0.34,0.18.34,0.17,1-.38a0.44,0.44,0,0,1,.66.11c0.15,0.23.2,0.59,0.52,0.5a5.55,5.55,0,0,1,3.36-.17,1.15,1.15,0,0,0,.69,0,12.25,12.25,0,0,1,3.63-.41c1.62-.13,3.25-0.17,4.86-0.39a4.11,4.11,0,0,0,2.12-.53,0.49,0.49,0,0,1,.46,0,4.35,4.35,0,0,0,2.42,0,16.39,16.39,0,0,0,3.11-.58,30.26,30.26,0,0,1,3.8-.8,10,10,0,0,0,1.6-.49,1.84,1.84,0,0,0,1.19-.78,5,5,0,0,0,2.21-1.92,4.51,4.51,0,0,1,1.07-.51,0.32,0.32,0,0,1,.26.18,2.18,2.18,0,0,1,.22,1.16,3.77,3.77,0,0,1-1.74,2.12,25.7,25.7,0,0,1-8.29,2.89A75.6,75.6,0,0,1,194.87,27.89Z"/><path class="cls-2" d="M237.07,235.54a1.37,1.37,0,0,1-.55-0.11l-13.87-6a1.39,1.39,0,0,1,1.1-2.55l13.87,6A1.39,1.39,0,0,1,237.07,235.54Z"/><path class="cls-3" d="M219.33,249.49c-3.41,0-6.68.45-10,0-7.91,0-15.83,0-23.73,0a32.14,32.14,0,0,0-3.25.27,32.53,32.53,0,0,1-6.82,0,54,54,0,0,0-10.42-.08c-2.54.24-10.93,0.15-13.35,0a78.2,78.2,0,0,0-10.69-.07,63,63,0,0,1-8.42.05,29.68,29.68,0,0,1-6.66,0c-1.49-.14-17.49-0.15-23.57-0.21-2.26,0-4.54-.36-6.66-0.32s-4.44.29-7,.29c-6.09,0-12.18,0-18.28.06-15.25,0-50.65,0-53-.07-1.08,0-7.06-1.22-6.83-1.74,0.38-.86,2.77-2.67,13-2.65L85.88,245c3.07,0,11,.39,12.29.27,3.38-.31,7.09-0.24,10.74-0.23,9.27,0.74,19.17.39,28.81,0.5a80.82,80.82,0,0,0,8.82-.29c1.09-.11,6.76.34,8.49,0.33,13.41,0,26.81-.06,40.22-0.08,2.54,0,4.69-.25,7-0.29s4.54,0.23,6.87.29c3,0.07,6.08.07,9.13,0.07l82.41-.05c0.6,0,1.19,0,1.79,0,1.41,0,9.57.62,9.57,2.32,0,2-19.47,2-31.68,2C256.56,250,230.89,249.35,219.33,249.49Z"/><path class="cls-2" d="M171.42,206.14c-0.59,0-1.15.47-1.73,0-1.36,0-2.73,0-4.09,0a1.3,1.3,0,0,0-.56.28,1,1,0,0,1-1.18,0,1.68,1.68,0,0,0-1.8-.08,4,4,0,0,1-2.3,0,2.35,2.35,0,0,0-1.84-.07,1.88,1.88,0,0,1-1.45.06,1,1,0,0,1-1.15,0c-0.26-.14-3-0.15-4.06-0.22a8.5,8.5,0,0,0-1.15-.33,10,10,0,0,1-1.2.3c-1,0-2.1,0-3.15.06-2.63,0-8.73,0-9.14-.07a3.37,3.37,0,0,1-1.18-1.8c0.07-.89.48-2.76,2.24-2.74l10.73,0.08a18.69,18.69,0,0,0,2.12.28,3.44,3.44,0,0,1,1.85-.23c1.6,0.76,3.3.41,5,.52a2.52,2.52,0,0,0,1.52-.3,9.16,9.16,0,0,1,1.46.35c2.31,0,4.62-.06,6.93-0.08a11,11,0,0,0,1.2-.3,5.82,5.82,0,0,1,1.18.3,11.44,11.44,0,0,0,1.57.07l14.2-.05c0.1,0,.21,0,0.31,0a2.39,2.39,0,0,1,1.65,2.4c0,2.08-3.36,2-5.46,2.07C177.84,206.63,173.41,206,171.42,206.14Z"/></svg>
