<svg height="20" width="20" xmlns="http://www.w3.org/2000/svg" viewBox="0 0 20 20"><defs><style>.cls-1{fill:#005dff;}</style></defs><path d="M17.23,12.05V9.5A7.2,7.2,0,0,0,15,4.25a6.93,6.93,0,0,0-2.74-1.6V2.18a2.18,2.18,0,0,0-4.36,0v.47a7.42,7.42,0,0,0-5,7.08V12A2.47,2.47,0,0,0,3,17H7a3,3,0,0,0,6.09,0H17a2.47,2.47,0,0,0,.25-4.92ZM9.09,2.18a.95.95,0,1,1,1.89,0v.19a7.47,7.47,0,0,0-1.42-.05l-.47.05ZM10,18.77A1.82,1.82,0,0,1,8.22,17h3.62A1.81,1.81,0,0,1,10,18.77Zm7-3H3a1.24,1.24,0,1,1,0-2.47H4.07V9.73A6.09,6.09,0,0,1,9.63,3.55,6,6,0,0,1,16,9.5V12H8.05v1.23H17a1.24,1.24,0,1,1,0,2.47Z" style="fill:#005dff" data-name="Layer 1"/></svg>
