<svg height="20" width="20" xmlns="http://www.w3.org/2000/svg" viewBox="0 0 20 20"><defs><style>.cls-1{fill:#005dff;}</style></defs><g id="Layer_1" data-name="Layer 1"><path class="cls-1" d="M10.49,14.85A2.19,2.19,0,0,1,8.3,17H3.41a2.19,2.19,0,0,1-2.19-2.19V5.32a2.2,2.2,0,0,1,2.19-2.2H8.3a2.2,2.2,0,0,1,2.19,2.2V7.84h1.22V5.32A3.42,3.42,0,0,0,8.3,1.9H3.41A3.42,3.42,0,0,0,0,5.32v9.53a3.41,3.41,0,0,0,3.41,3.41H8.3a3.41,3.41,0,0,0,3.41-3.41V12.72H10.49Z"/><path class="cls-1" d="M19 9.28L17.56 7.84 15.27 5.54 14.4 6.41 15.84 7.84 17.67 9.67 11.71 9.67 10.49 9.67 6.72 9.67 6.56 9.67 6.56 10.89 6.72 10.89 10.49 10.89 11.71 10.89 17.67 10.89 15.84 12.72 14.4 14.15 15.27 15.01 17.56 12.72 19 11.28 20 10.28 19 9.28z"/></g></svg>
