<svg height="20" width="20" xmlns="http://www.w3.org/2000/svg" viewBox="0 0 20 20"><defs><style>.cls-1{fill:#005dff;}</style></defs><g id="Layer_1" data-name="Layer 1"><path class="cls-1" d="M16.6 2.85A1.91 1.91 0 0 0 14.7 1H13.64a1.91 1.91 0 0 0-1.9 1.81H.46V4.1H11.74a1.91 1.91 0 0 0 1.9 1.82H14.7A1.91 1.91 0 0 0 16.6 4.1h2.94V2.85zM15.36 3V4a.29.29 0 0 1 0 .09.66.66 0 0 1-.64.57H13.64A.66.66 0 0 1 13 4.1S13 4 13 4V3s0-.07 0-.1a.66.66 0 0 1 .64-.56H14.7a.66.66 0 0 1 .64.56A.3.3 0 0 1 15.36 3zM8.59 9.31A1.91 1.91 0 0 0 6.69 7.4H5.3A1.92 1.92 0 0 0 3.39 9.31v.07H.46v1.25H3.39v.06A1.91 1.91 0 0 0 5.3 12.6H6.69a1.9 1.9 0 0 0 1.9-1.91v-.06h11V9.38H8.59zM7.34 10.63v.06a.65.65 0 0 1-.65.66H5.3a.66.66 0 0 1-.66-.66V9.31a.66.66 0 0 1 .66-.66H6.69a.65.65 0 0 1 .65.66v1.32zM16.61 15.83a1.92 1.92 0 0 0-1.91-1.91H13.31a1.91 1.91 0 0 0-1.9 1.91v.07H.46v1.25h11v.07a1.91 1.91 0 0 0 1.9 1.91H14.7a1.92 1.92 0 0 0 1.91-1.91v-.07h2.93V15.9H16.61zm-1.25 1.32v.07a.67.67 0 0 1-.66.66H13.31a.66.66 0 0 1-.65-.66V15.83a.66.66 0 0 1 .65-.66H14.7a.67.67 0 0 1 .66.66v1.32z"/></g></svg>
