<svg height="20" width="20" xmlns="http://www.w3.org/2000/svg" viewBox="0 0 20 20"><defs><style>.cls-1{fill:#005dff;}</style></defs><g id="Layer_1" data-name="Layer 1"><path class="cls-1" d="M10,20A10,10,0,1,1,20,10,10,10,0,0,1,10,20ZM10,1.23A8.77,8.77,0,1,0,18.77,10,8.79,8.79,0,0,0,10,1.23Z"/><path class="cls-1" d="M10 9.06a2.82 2.82 0 1 1 2.82-2.82A2.83 2.83 0 0 1 10 9.06zm0-4.4a1.58 1.58 0 1 0 1.58 1.58A1.58 1.58 0 0 0 10 4.66zM15.22 15.33H14V13.92a2.59 2.59 0 0 0-2.58-2.58H8.59A2.59 2.59 0 0 0 6 13.92v1.41H4.78V13.92a3.82 3.82 0 0 1 3.81-3.81h2.82a3.82 3.82 0 0 1 3.81 3.81z"/></g></svg>
